{
	"patcher" : 	{
		"fileversion" : 1,
		"appversion" : 		{
			"major" : 8,
			"minor" : 2,
			"revision" : 1,
			"architecture" : "x64",
			"modernui" : 1
		}
,
		"classnamespace" : "box",
		"rect" : [ 39.0, 71.0, 1042.0, 818.0 ],
		"bglocked" : 0,
		"openinpresentation" : 1,
		"default_fontsize" : 12.0,
		"default_fontface" : 0,
		"default_fontname" : "Arial",
		"gridonopen" : 1,
		"gridsize" : [ 15.0, 15.0 ],
		"gridsnaponopen" : 1,
		"objectsnaponopen" : 1,
		"statusbarvisible" : 2,
		"toolbarvisible" : 1,
		"lefttoolbarpinned" : 0,
		"toptoolbarpinned" : 0,
		"righttoolbarpinned" : 0,
		"bottomtoolbarpinned" : 0,
		"toolbars_unpinned_last_save" : 0,
		"tallnewobj" : 0,
		"boxanimatetime" : 200,
		"enablehscroll" : 1,
		"enablevscroll" : 1,
		"devicewidth" : 0.0,
		"description" : "",
		"digest" : "",
		"tags" : "",
		"style" : "",
		"subpatcher_template" : "",
		"assistshowspatchername" : 0,
		"boxes" : [ 			{
				"box" : 				{
					"id" : "obj-78",
					"maxclass" : "button",
					"numinlets" : 1,
					"numoutlets" : 1,
					"outlettype" : [ "bang" ],
					"parameter_enable" : 0,
					"patching_rect" : [ 105.5, 79.0, 24.0, 24.0 ]
				}

			}
, 			{
				"box" : 				{
					"id" : "obj-92",
					"maxclass" : "newobj",
					"numinlets" : 1,
					"numoutlets" : 0,
					"patching_rect" : [ 89.0, 605.080808080808083, 65.0, 22.0 ],
					"text" : "s #0_reset"
				}

			}
, 			{
				"box" : 				{
					"id" : "obj-93",
					"maxclass" : "newobj",
					"numinlets" : 2,
					"numoutlets" : 2,
					"outlettype" : [ "bang", "" ],
					"patching_rect" : [ 89.0, 574.580808080808083, 34.0, 22.0 ],
					"text" : "sel 0"
				}

			}
, 			{
				"box" : 				{
					"id" : "obj-86",
					"maxclass" : "newobj",
					"numinlets" : 1,
					"numoutlets" : 0,
					"patching_rect" : [ 15.5, 526.0, 81.0, 22.0 ],
					"text" : "s #0_enabled"
				}

			}
, 			{
				"box" : 				{
					"id" : "obj-66",
					"maxclass" : "newobj",
					"numinlets" : 0,
					"numoutlets" : 1,
					"outlettype" : [ "" ],
					"patching_rect" : [ 504.0, 135.5, 79.0, 22.0 ],
					"text" : "r #0_enabled"
				}

			}
, 			{
				"box" : 				{
					"id" : "obj-81",
					"maxclass" : "newobj",
					"numinlets" : 2,
					"numoutlets" : 1,
					"outlettype" : [ "" ],
					"patching_rect" : [ 504.0, 200.580808080808083, 42.0, 22.0 ],
					"text" : "gate 1"
				}

			}
, 			{
				"box" : 				{
					"id" : "obj-89",
					"maxclass" : "message",
					"numinlets" : 2,
					"numoutlets" : 1,
					"outlettype" : [ "" ],
					"patching_rect" : [ 200.5, 322.0, 64.0, 22.0 ],
					"text" : "toggles $1"
				}

			}
, 			{
				"box" : 				{
					"id" : "obj-58",
					"maxclass" : "newobj",
					"numinlets" : 1,
					"numoutlets" : 0,
					"patching_rect" : [ 389.0, 448.5, 65.0, 22.0 ],
					"text" : "s CH-flags"
				}

			}
, 			{
				"box" : 				{
					"comment" : "nodeDebug",
					"id" : "obj-50",
					"index" : 0,
					"maxclass" : "outlet",
					"numinlets" : 1,
					"numoutlets" : 0,
					"patching_rect" : [ 738.5, 389.0, 30.0, 30.0 ]
				}

			}
, 			{
				"box" : 				{
					"autofit" : 1,
					"data" : [ 4482, "png", "IBkSG0fBZn....PCIgDQRA...XL....HHX....PRFdfv....DLmPIQEBHf.B7g.YHB..QjSRDEDU3wY6clEabccd.96dm8ENKbYH4v8EIJJJQsXJGiXU6H4.3lEmFjTfjlhViBzMfz9RQdH.tuUzGKZ.bSB5CsOz3k.jlFz.jFo33XGKo3EYQIJIRJtuOCIGxYe3rbm681GFyYQb3rPQIMxse.BXtW9eOmyc4+b9O+++miDdsO5eSk+OFpppjNkLoSISTuwHsfDVp2BlrXrhKCQshHpQ.AAgGhszGLBtdXhrYL.PPCz9Ps9XtE8jCZeb2.dbvFytES+dySGs0Auxe+qfjjDqs5pL+7KvlatIgBEhPgCQnPgHVzXDNRHznUKZznIaYn2tVN5y0GNaxdMqxQPOgY4atF.nQmXIULRFKEqOkOTUTwUeMhYmUdmDeZjxpXnpBQ1LJ6DJAIikDUYUzYRKFqy.1a0FZ0oobEAJJpnHoj8XM5Eq5OljRlFA9jqQjJpdKFxoUXwquB0Y0Je6+luMBBBnWud5o2domd6snWS3vgY5olhM1XCBGNLACEjPACwLWYdF9KbbLY9gyGQQ2dGhEHNIikfzojQuYcXvpAb1hczZ3fc+WLRmTla9yuKo1QB.Vabub1u5vXxtgCs53IM1WECo3oYwasJasv1HEOcQkQiNQZrmFn6y1AFrnaeqj.qFjweqoyd7Y9CNA00nkppg9w+zwx1Nb0eibrmuup552kkt0pjJtDu7e9KiSmNqnqwlMaLx4N2dN+X2dL9IW6MYfydDDEObF0PVRgku8Z3aN+jHRhhJinFApucmz8S0wgRO6g8EMqRAjoyC+dBRa1a9AtreRk8nXnpphmw2fEGcEjyqW9hgrjBaLsO1dA+z8moSbOfqGZMzCCRFKEqcGubgm+BLxH68C8pkSM7o3G+S+wrSjcvp8pSQuXr4bay7e3RjJtTIkSQVksVxOauR.53ztoqS21Cj4bFsY.D.xa1llsY5.Wd0ZHKovbezR.fAS5oqy1VYulBTLTUUY1qsDdmZiBDRPP.qMYAS0YDs50Rx3IIhunjJVlWfokjY1qt.oSHQmmp7U5iKl88Wjd5rG9l+QeyCsx7bmZDd+6dUN4yLDZzHdfKmkukGV7FqTv4DDDvR8lwrCinUuNjRHQzs2g3giC.pJpr7nqgTrzbjy28AttMayHG6B8yx2bMTUTw8wZFmsY6.Wd0ZjbmTr981D.L6vT0qXLyUVj0mYyrGKpQj1NYKz9waEclJbvEUUv+JAY1OXQRFIIBBBXnJ7pyiZB6KJo7ml+pW4u9Psb+xe4WhK82cYBcjP3rIGGndtWdr0XwarZtSH.sdzlo8S0Jlpau14Gb8vL26uDw7uC.nuDlwVo3pmFvUOM7.WN0hjNQwmJPoH6W6atv1EnTnyjVN4u+fXsdyE8BEDfF5zANZcXl3WOM1a0FM2es4CVUUUl4pKve5e7KiCGNNTKa850y4F9bL1nixHW7LnSe04nuvaDs.kBMZE43e9ihy1ruuWiiVrwY+pmjodu4PPTftNSs6nz0BHkrzllVLDgLdkXtqsX1SpUmlRpTjOZzIxPu3.z4ocW0U9iJ7NkON+ScdN8oO8Ckx+EewWjfKDAed1BU0JOrPppvTu274rsW.F7EJsRwtHH.C7b8xQOew8j1+O4HcpROW4hgV.7N0lHkL2vMcc11qHkhc4vxiLOLPNsBrgHesuyWuhjOshLditEokkvk0FvhtxOIzN6pSF5HCwTWeZb5xQE691sVze14K.PqC1L02d4UJ1kZo3mjNoLwBtCxRJnQuHlsaBcFNbBSlpJDORBRDNIhhBXzlALZsxckrTxTUccpUQQEOSrd1SXvpAbOTKUcAUqxZezF7s+K+aKqbRJo4meueCS38NHhLokkwSzsYvVOAeqS9R3xZoMS7o+LOMS7iFm0l2C8d7dpnNKV8tdy9aMZEomy1Q4ugdHwbe3RDd8n.fkFLyQOeOUz0s8xAX063kvaDsfQKEDDvdK0QGm1MNcWZkc+qFhk9DyIc0WCz1Ix78WZIYV8tdYi64ij6T3G2VavB8btN2WmDr1jaPHugQNoL6DLWmOIhjja9eO9djuyyzFMzYNyr0FwWTRFKWk1xQZhZnNhdfHnmH7k9buD1rUZOrjRVhW8C9OvDonWa4hsQ+Nalo7uJem+m+A9GewuKcXe+6v3hW3hb4e4kX1qu.szQyk08sRwSSjMil83F5p9C0f1UsjHTRhrUl1iXE3cMYIEt2ucV1do.E8uqppRPugIn2v3dnVnuOSm66HboSlNacuaPECtdXl58lmjQRVzqI51w3tW9dbrWneZpq52yeO3JgX6U1aaSQVIackOR22DzECuQgB0P2UVPup0QJUZ5RWOL7oFtrx9eM4aghTXrqeuCOOP8twnFA9d+t+cTJw7GDDD3jCOL5Rom4mXQjkKscsAVOTAG2XO68kasJxRJb6e4jEnTXzlQZ83MS2izNsd7lwnsblS5Y70YgOdkhUT6gjwRgu48ycuzTYUJzaQG1aoNr1nEDxajXUUUl8JKTvz.NrPan0Cm6.cZvhyOcDXGeSsMu7e1eQYkKU5T7tycU9rst+QR+Dt5gew3uK2Z8I4rsd78Utu3W3Kvu62cMVYLOzdetKo6aCsdjBNtZyDfGmL8UmmH9xzgpfn.89Lcg6i4pf6UUUUVYLuYiMyZ2YcZr6FvVSk99LhunL4Fy.peh4ROcGEXJVxXoXx2YVBuQlmeRISyFy5aO4A1wtP+npjoiroux7r0R9A.S1MxYdoSrm5UPagumzluYTlbX5QxD5B5ILI1mgH2OTkqFu8nxpS6k2427NbwW3hkT14CtJQhGFMk391r1LijLtuYKohQCM1HCbziw3SNNSM5rkz8sIil69WmQsXvh9R1NqUXqkBfu42FHynjG6y0OMUjQ6DDDnyS6ljQSg2o1HihxsWigdgiVxxW4SdO2xwbQ+OS2Hpov2KFrnmAuP+b8exXn7IiJGX4P6QwPitblCJjWYHHHTQlrpMee79nxF2Et9xOTK+T6HQhPI4it9GUVEicRmf3R6PJEEzKVbaqCjLSpaGWp34tT9b9yedFexwwyTqSfgChK2MVT4jSlyTKcFdvCP2iJVYLOY+cS81PQUJxmtep1w6za.pf+kCR5TxnUeo+Nq8S5ldNW66amzFrnGmtsmcNDQCDqJuKJOhoSHm8.s59zQVnqyjNL6xHyM+brvBKTRYa1bijHQTVJ716qL216LYj0R4Cf4HmaDp2Y8DSZuSvKejRkqCIQcG7TI4QIw7GOqIT.zQED6JclzhcWYb9gphZAW+9QaC0bYsbwjibygQJdZphvGUQHle8qnV8AB4ff0FsfS21qp+UIdJYWDEEn+moGDDg29se6RJaa1bwwa+zbikuMqDIX94QGxpp7AdlhMCsA50aly0V4mHO.JBJbzS0ONarBix9SHKUr.dCl82lcZBKNpr4iZIuXhsSf3kPxJm6OEkRm5vcB3Z0ZPKxoyLOC4TxkQ7CGNxy1SUOYy2+MtAJwqbEWa0WG02qCt8XiQpToPu982F9+jy704U7bGd2YtFNqqIbYsAjjSwp98PRoLuH+li7MvccMU1580e8Wio7NAe9yewRtlQxO3Wokdz7b+AkcWMfPlIFWon0TtmCoN.omQwPmg6684gbmKZ0YPW13XjuYUOoinn.8+z8vGt3nb4KcIdouxWYek8TsL.e2O+2g+4266i+vah+v4kHkhZ3ObjuAeiS7EKacN932kW++70X3KNDNZrzqrOs4oXHEOEppp0TQxtXHkH2G0aN6Vr4raU0kghzSFCOpUuUcPFOYkIj9xJOPoOcsDFMafNNSabiQGsjJF.b9tdJF3q8OwaM+0X1sWjDRIoSmswy204XvlJ+hhJZjn7pe+Wk5bagdFr6x9Lzn0b1HKKoP7HIwrsZ2rSF1aPvNHnwvSFeao0dy1v+xYrcTUQknaGC6tp6wby5vAAAA573sw6emOlacyaxoOyYJo7MYwIeqS9kOP00+xO3UYxkmjK90eNLWW4yyLasZk0xKyDh5KVMuhQ9dSxdK0g6iW8oNj05exHdMZs0h0BNwVK3+SMJFPlfVdzeud4JW8pkUw3fxO9MeSd6q7anuS1Cs0q6JJOor6pNDDDxleQ9laab0WsYZ6uK46VYAAwx5p1mjQzVS0gg7xTwMmaqLYj5mRPPPfl5nQlYsoIPfhmWOOHbyadStzacITMJyfmc.LZpxx5S8lzQctx0oj+0BRxXGNSL8gE46conaGEEkmLluvAAQAAv8wysVskhmlkGasGiMoCeznQjAd993Wc4KenVtACFjW609Qrz5Kwfmc.ZxciU0Dna+D4hVqphJKb8kNTaeG1X2cNKIRmRl.qEpDRWCg5976RfHjYYTlu6CW6NdIXd4PU4PVVgE+3Uqoc6ns5qiIWdhpZgDUJTUU4G9C+ArrmkwZSl4HC2eUuk9zPWNwr8bwBv279w279qp1vh2b0BxN5GlXyUgVWrznqdn877gIZzl68R9dVqTHBYREj9d1tydREYUl3sllPdireWWVRmTlI90SyxisFS9qmorYU5iKDEEnkS2HW6pW8Po7dy23MXt4mmMBrNCMxfk08rECAA3HOWOr61kkppJ262NaEobHmVgYtxhr7nqwc+USQ5jO76TRTTf1GN2nbQ2JFKb8UKwUTafAq4h4Q5TxUTGIY8clqdZfVGH29HT5TxL1ubBl9ZKPrhDsRojowyTaxG+SGi.qlYH0.dBk820hX0gE9v69AL4DSPxjUWRLlOidiav6c0qvF92fV6q4Jx8r6G1cUGc+T4VfRpJpL46LCi+1SSnM2aGSJxp3ad+L5O6tYWi9w7uCqO6l6Q17y8MkzpGJcZ05.tvVy4LoZ063gotx76qqbUjUwyjavcu7TO1FcwZdASd2r9sbTPb06+Y6FDAuS9IaeNpv52aSV+dahw5LhAK5PqNsjHVRhGJQ1raDxLI2de5NowtpcWOGBBBzvv1468u98fDfEyVvgSGTm05vpUq3vgCrYyFs2d6zW+8iQi608oABDfW+MdcjRKQ3jgXjQpL2yVJ57TtQPPfE+3Ux9wy1KFfsWL.5snCiVMhN8ZIY7TDOT78ree01PsRaEw0oFyaWaQUUko9syQCcV+CzlVgnn.Cdgivs9Eimc8Rr6dKlyNbf0FMiVcZyru.uULB5IT10KwVKDfl58Qumrb1lczaRW18qKOStNwCGGGsYCUYH7lQvYGNnsAyMvPAJFBBvQ9rciEmlXoarZAK.jDQRru6LdFLqm9e1togNqcUJ1Es5zvQOeubq25t3y6Vn5Yw8HirrLlzaD61riSmNo95qGm1chSmN4liMJyu5BDIdX5e3dqX2yVN5X3VwncCL26uX18qK.RESpfiyGcFzRWmqi8cityVyVQTiP1T4dqE7Sjsh8.uatXvhNNyKMDS71yjccQjVRFeyuc1TR+9QqNMO171onFA56Y5l68tylsim.qEp.mGnppt+JF6h6AaFW81HqdGu3awsIdnhqPXxtQb0aiz1IZojoR78mC7GjTePqdsYW3IhZO3QOcW22dxWXP1Z8sJ4pxC.YRgOVGe6rNrCPiPeM1E5zpE283thcOakPScUO02lC7L453aN+Dc6hmN05snKyy8gZojqiC8lzQ+e1dYlqMe1mcohlJyFVv8kQuhZEy9NRTW4e+n2jNN0WZP1Zg.rxs8PL+6TTSkLTmAZ9HMRaGqk8j3eYqaMhU8RdPPr59lJyHU8ybevhEcmdL88kmfBUx+M.rS3L6PCohmBEEULXVOlrZ7I5cDaUU0GnTUd22COLyuojwjHVfcPJQZjkRiAK5wfECXodyU05xOQzjDzaXTjTvXcFvQa1Oz2YWRFShnaGijwyLwVClziYGlvjsZqMFZEEUBuQDRDIEJpJXzrdrTu48zAy+KrSDHPHYNetQ.....jTQNQjqBAlf" ],
					"embed" : 1,
					"forceaspect" : 1,
					"id" : "obj-8",
					"maxclass" : "fpic",
					"numinlets" : 1,
					"numoutlets" : 1,
					"outlettype" : [ "jit_matrix" ],
					"patching_rect" : [ -1.0, 200.580808080808083, 100.0, 16.161616161616163 ],
					"pic" : "CH-Client-Title.png",
					"presentation" : 1,
					"presentation_rect" : [ 4.0, 4.0, 99.0, 16.0 ]
				}

			}
, 			{
				"box" : 				{
					"bgcolor" : [ 0.2, 0.2, 0.2, 1.0 ],
					"fontname" : "Arial",
					"id" : "obj-64",
					"maxclass" : "textbutton",
					"numinlets" : 1,
					"numoutlets" : 3,
					"outlettype" : [ "", "", "int" ],
					"parameter_enable" : 0,
					"patching_rect" : [ 1395.0, 44.0, 110.0, 20.0 ],
					"presentation" : 1,
					"presentation_rect" : [ 125.0, 4.0, 108.0, 18.0 ],
					"style" : "velvet",
					"text" : "Show all Clients",
					"textoncolor" : [ 1.0, 1.0, 1.0, 1.0 ]
				}

			}
, 			{
				"box" : 				{
					"id" : "obj-108",
					"maxclass" : "message",
					"numinlets" : 2,
					"numoutlets" : 1,
					"outlettype" : [ "" ],
					"patching_rect" : [ 254.5, 577.0, 35.0, 22.0 ],
					"text" : "0"
				}

			}
, 			{
				"box" : 				{
					"id" : "obj-105",
					"maxclass" : "newobj",
					"numinlets" : 0,
					"numoutlets" : 1,
					"outlettype" : [ "" ],
					"patching_rect" : [ 1236.0, 542.0, 131.0, 22.0 ],
					"text" : "receive #0_localServer"
				}

			}
, 			{
				"box" : 				{
					"id" : "obj-100",
					"maxclass" : "newobj",
					"numinlets" : 0,
					"numoutlets" : 1,
					"outlettype" : [ "" ],
					"patching_rect" : [ 811.0, 271.5, 131.0, 22.0 ],
					"text" : "receive #0_localServer"
				}

			}
, 			{
				"box" : 				{
					"id" : "obj-87",
					"maxclass" : "newobj",
					"numinlets" : 2,
					"numoutlets" : 1,
					"outlettype" : [ "" ],
					"patching_rect" : [ 297.0, 526.0, 42.0, 22.0 ],
					"text" : "gate 1"
				}

			}
, 			{
				"box" : 				{
					"id" : "obj-83",
					"linecount" : 2,
					"maxclass" : "comment",
					"numinlets" : 1,
					"numoutlets" : 0,
					"patching_rect" : [ 1192.0, 44.0, 94.0, 33.0 ],
					"text" : "patcher instance"
				}

			}
, 			{
				"box" : 				{
					"id" : "obj-80",
					"maxclass" : "newobj",
					"numinlets" : 1,
					"numoutlets" : 1,
					"outlettype" : [ "bang" ],
					"patching_rect" : [ 1293.099999999999909, 31.0, 58.0, 22.0 ],
					"text" : "loadbang"
				}

			}
, 			{
				"box" : 				{
					"id" : "obj-67",
					"maxclass" : "newobj",
					"numinlets" : 2,
					"numoutlets" : 2,
					"outlettype" : [ "bang", "" ],
					"patching_rect" : [ 319.0, 417.5, 34.0, 22.0 ],
					"text" : "sel 0"
				}

			}
, 			{
				"box" : 				{
					"id" : "obj-39",
					"maxclass" : "newobj",
					"numinlets" : 1,
					"numoutlets" : 2,
					"outlettype" : [ "", "" ],
					"patching_rect" : [ 466.0, 52.0, 72.0, 22.0 ],
					"text" : "patcherargs"
				}

			}
, 			{
				"box" : 				{
					"id" : "obj-106",
					"maxclass" : "newobj",
					"numinlets" : 2,
					"numoutlets" : 2,
					"outlettype" : [ "", "" ],
					"patching_rect" : [ 389.0, 417.5, 99.0, 22.0 ],
					"text" : "route senderFlag"
				}

			}
, 			{
				"box" : 				{
					"id" : "obj-75",
					"maxclass" : "newobj",
					"numinlets" : 0,
					"numoutlets" : 1,
					"outlettype" : [ "" ],
					"patching_rect" : [ 599.0, 126.5, 79.0, 22.0 ],
					"text" : "r #0_enabled"
				}

			}
, 			{
				"box" : 				{
					"id" : "obj-76",
					"maxclass" : "newobj",
					"numinlets" : 2,
					"numoutlets" : 1,
					"outlettype" : [ "" ],
					"patching_rect" : [ 658.5, 165.0, 42.0, 22.0 ],
					"text" : "gate 1"
				}

			}
, 			{
				"box" : 				{
					"id" : "obj-73",
					"maxclass" : "newobj",
					"numinlets" : 0,
					"numoutlets" : 1,
					"outlettype" : [ "" ],
					"patching_rect" : [ 781.0, 126.5, 79.0, 22.0 ],
					"text" : "r #0_enabled"
				}

			}
, 			{
				"box" : 				{
					"id" : "obj-74",
					"maxclass" : "newobj",
					"numinlets" : 2,
					"numoutlets" : 1,
					"outlettype" : [ "" ],
					"patching_rect" : [ 846.0, 163.0, 42.0, 22.0 ],
					"text" : "gate 1"
				}

			}
, 			{
				"box" : 				{
					"id" : "obj-71",
					"maxclass" : "newobj",
					"numinlets" : 0,
					"numoutlets" : 1,
					"outlettype" : [ "" ],
					"patching_rect" : [ 319.0, 367.5, 79.0, 22.0 ],
					"text" : "r #0_enabled"
				}

			}
, 			{
				"box" : 				{
					"id" : "obj-72",
					"maxclass" : "newobj",
					"numinlets" : 2,
					"numoutlets" : 1,
					"outlettype" : [ "" ],
					"patching_rect" : [ 200.5, 417.5, 42.0, 22.0 ],
					"text" : "gate 1"
				}

			}
, 			{
				"box" : 				{
					"id" : "obj-68",
					"maxclass" : "newobj",
					"numinlets" : 0,
					"numoutlets" : 1,
					"outlettype" : [ "" ],
					"patching_rect" : [ 314.0, 298.080808080808083, 79.0, 22.0 ],
					"text" : "r #0_enabled"
				}

			}
, 			{
				"box" : 				{
					"id" : "obj-69",
					"maxclass" : "newobj",
					"numinlets" : 2,
					"numoutlets" : 1,
					"outlettype" : [ "" ],
					"patching_rect" : [ 314.0, 330.5, 42.0, 22.0 ],
					"text" : "gate 1"
				}

			}
, 			{
				"box" : 				{
					"id" : "obj-54",
					"maxclass" : "newobj",
					"numinlets" : 0,
					"numoutlets" : 1,
					"outlettype" : [ "" ],
					"patching_rect" : [ 1022.0, 542.0, 79.0, 22.0 ],
					"text" : "r #0_enabled"
				}

			}
, 			{
				"box" : 				{
					"id" : "obj-59",
					"maxclass" : "newobj",
					"numinlets" : 2,
					"numoutlets" : 1,
					"outlettype" : [ "" ],
					"patching_rect" : [ 1022.0, 583.5, 52.0, 22.0 ],
					"text" : "gate 1"
				}

			}
, 			{
				"box" : 				{
					"id" : "obj-49",
					"maxclass" : "newobj",
					"numinlets" : 3,
					"numoutlets" : 3,
					"outlettype" : [ "", "", "" ],
					"patching_rect" : [ 414.0, 94.0, 127.0, 22.0 ],
					"text" : "route enabled connect"
				}

			}
, 			{
				"box" : 				{
					"id" : "obj-57",
					"maxclass" : "newobj",
					"numinlets" : 0,
					"numoutlets" : 1,
					"outlettype" : [ "" ],
					"patching_rect" : [ 1293.099999999999909, 155.0, 71.0, 22.0 ],
					"text" : "r CH-clients"
				}

			}
, 			{
				"box" : 				{
					"id" : "obj-38",
					"maxclass" : "newobj",
					"numinlets" : 1,
					"numoutlets" : 0,
					"patching_rect" : [ 1395.0, 80.0, 73.0, 22.0 ],
					"text" : "s CH-clients"
				}

			}
, 			{
				"box" : 				{
					"id" : "obj-60",
					"maxclass" : "message",
					"numinlets" : 2,
					"numoutlets" : 1,
					"outlettype" : [ "" ],
					"patching_rect" : [ 1293.099999999999909, 188.25, 33.0, 22.0 ],
					"text" : "front"
				}

			}
, 			{
				"box" : 				{
					"id" : "obj-56",
					"maxclass" : "newobj",
					"numinlets" : 1,
					"numoutlets" : 2,
					"outlettype" : [ "", "" ],
					"patching_rect" : [ 1293.099999999999909, 218.25, 67.0, 22.0 ],
					"save" : [ "#N", "thispatcher", ";", "#Q", "end", ";" ],
					"text" : "thispatcher"
				}

			}
, 			{
				"box" : 				{
					"id" : "obj-55",
					"maxclass" : "newobj",
					"numinlets" : 1,
					"numoutlets" : 0,
					"patching_rect" : [ 1293.099999999999909, 113.5, 91.0, 22.0 ],
					"text" : "print CH-Client:"
				}

			}
, 			{
				"box" : 				{
					"id" : "obj-53",
					"maxclass" : "message",
					"numinlets" : 2,
					"numoutlets" : 1,
					"outlettype" : [ "" ],
					"patching_rect" : [ 1293.099999999999909, 77.5, 81.0, 22.0 ],
					"text" : "#0_CH-Client"
				}

			}
, 			{
				"box" : 				{
					"id" : "obj-47",
					"maxclass" : "newobj",
					"numinlets" : 1,
					"numoutlets" : 1,
					"outlettype" : [ "bang" ],
					"patching_rect" : [ 466.0, 14.5, 58.0, 22.0 ],
					"text" : "loadbang"
				}

			}
, 			{
				"box" : 				{
					"id" : "obj-19",
					"maxclass" : "newobj",
					"numinlets" : 2,
					"numoutlets" : 2,
					"outlettype" : [ "", "" ],
					"patching_rect" : [ 846.0, 219.5, 78.0, 22.0 ],
					"text" : "route toggles"
				}

			}
, 			{
				"box" : 				{
					"id" : "obj-14",
					"maxclass" : "newobj",
					"numinlets" : 0,
					"numoutlets" : 1,
					"outlettype" : [ "" ],
					"patching_rect" : [ 869.0, 126.5, 63.0, 22.0 ],
					"text" : "r CH-flags"
				}

			}
, 			{
				"box" : 				{
					"id" : "obj-52",
					"maxclass" : "newobj",
					"numinlets" : 1,
					"numoutlets" : 1,
					"outlettype" : [ "" ],
					"patching_rect" : [ 409.0, 488.0, 70.0, 22.0 ],
					"text" : "loadmess 1"
				}

			}
, 			{
				"box" : 				{
					"id" : "obj-51",
					"maxclass" : "message",
					"numinlets" : 2,
					"numoutlets" : 1,
					"outlettype" : [ "" ],
					"patching_rect" : [ 374.0, 539.0, 61.0, 22.0 ],
					"text" : "hidden $1"
				}

			}
, 			{
				"box" : 				{
					"id" : "obj-46",
					"maxclass" : "newobj",
					"numinlets" : 2,
					"numoutlets" : 1,
					"outlettype" : [ "int" ],
					"patching_rect" : [ 374.0, 488.0, 33.0, 22.0 ],
					"text" : "== 0"
				}

			}
, 			{
				"box" : 				{
					"id" : "obj-44",
					"maxclass" : "newobj",
					"numinlets" : 2,
					"numoutlets" : 2,
					"outlettype" : [ "", "" ],
					"patching_rect" : [ 906.0, 632.0, 114.0, 22.0 ],
					"text" : "route viewsUmenus"
				}

			}
, 			{
				"box" : 				{
					"id" : "obj-35",
					"maxclass" : "newobj",
					"numinlets" : 2,
					"numoutlets" : 2,
					"outlettype" : [ "", "" ],
					"patching_rect" : [ 200.5, 452.5, 78.0, 22.0 ],
					"text" : "route toggles"
				}

			}
, 			{
				"box" : 				{
					"id" : "obj-43",
					"maxclass" : "newobj",
					"numinlets" : 0,
					"numoutlets" : 1,
					"outlettype" : [ "" ],
					"patching_rect" : [ 223.5, 367.5, 64.0, 22.0 ],
					"text" : "r CH-reset"
				}

			}
, 			{
				"box" : 				{
					"id" : "obj-20",
					"maxclass" : "newobj",
					"numinlets" : 2,
					"numoutlets" : 2,
					"outlettype" : [ "", "" ],
					"patching_rect" : [ 658.5, 219.5, 78.0, 22.0 ],
					"text" : "route toggles"
				}

			}
, 			{
				"box" : 				{
					"id" : "obj-15",
					"maxclass" : "newobj",
					"numinlets" : 0,
					"numoutlets" : 1,
					"outlettype" : [ "" ],
					"patching_rect" : [ 681.5, 126.5, 64.0, 22.0 ],
					"text" : "r CH-reset"
				}

			}
, 			{
				"box" : 				{
					"id" : "obj-45",
					"maxclass" : "newobj",
					"numinlets" : 0,
					"numoutlets" : 1,
					"outlettype" : [ "" ],
					"patching_rect" : [ 906.0, 542.0, 64.0, 22.0 ],
					"text" : "r CH-reset"
				}

			}
, 			{
				"box" : 				{
					"id" : "obj-42",
					"maxclass" : "newobj",
					"numinlets" : 2,
					"numoutlets" : 4,
					"outlettype" : [ "dictionary", "", "", "" ],
					"patching_rect" : [ 1022.0, 693.0, 50.5, 22.0 ],
					"saved_object_attributes" : 					{
						"embed" : 0,
						"parameter_enable" : 0,
						"parameter_mappable" : 0
					}
,
					"text" : "dict"
				}

			}
, 			{
				"box" : 				{
					"id" : "obj-40",
					"maxclass" : "message",
					"numinlets" : 2,
					"numoutlets" : 1,
					"outlettype" : [ "" ],
					"patching_rect" : [ 755.0, 447.5, 187.0, 22.0 ],
					"text" : "viewsUmenus clear, toggles set 0"
				}

			}
, 			{
				"box" : 				{
					"id" : "obj-32",
					"maxclass" : "newobj",
					"numinlets" : 1,
					"numoutlets" : 0,
					"patching_rect" : [ 755.0, 488.0, 66.0, 22.0 ],
					"text" : "s CH-reset"
				}

			}
, 			{
				"box" : 				{
					"id" : "obj-10",
					"maxclass" : "newobj",
					"numinlets" : 1,
					"numoutlets" : 1,
					"outlettype" : [ "" ],
					"patching_rect" : [ 507.0, 635.0, 71.0, 22.0 ],
					"text" : "v username"
				}

			}
, 			{
				"box" : 				{
					"id" : "obj-37",
					"maxclass" : "newobj",
					"numinlets" : 3,
					"numoutlets" : 3,
					"outlettype" : [ "bang", "bang", "" ],
					"patching_rect" : [ 182.0, 570.0, 44.0, 22.0 ],
					"text" : "sel 1 0"
				}

			}
, 			{
				"box" : 				{
					"bgcolor" : [ 0.0, 0.6, 0.2, 1.0 ],
					"bgoncolor" : [ 0.0, 0.6, 0.2, 1.0 ],
					"fontname" : "Arial",
					"id" : "obj-33",
					"maxclass" : "textbutton",
					"mode" : 1,
					"numinlets" : 1,
					"numoutlets" : 3,
					"outlettype" : [ "", "", "int" ],
					"parameter_enable" : 0,
					"patching_rect" : [ 658.5, 271.5, 110.0, 20.0 ],
					"presentation" : 1,
					"presentation_rect" : [ 281.0, 51.0, 37.0, 18.0 ],
					"text" : "Flags",
					"textcolor" : [ 0.6, 0.8, 0.6, 1.0 ],
					"texton" : "Flags",
					"textoncolor" : [ 1.0, 1.0, 1.0, 1.0 ],
					"usebgoncolor" : 1
				}

			}
, 			{
				"box" : 				{
					"id" : "obj-30",
					"maxclass" : "newobj",
					"numinlets" : 1,
					"numoutlets" : 0,
					"patching_rect" : [ 1256.200000000000045, 671.0, 79.0, 22.0 ],
					"text" : "print ERROR"
				}

			}
, 			{
				"box" : 				{
					"id" : "obj-41",
					"maxclass" : "message",
					"numinlets" : 2,
					"numoutlets" : 1,
					"outlettype" : [ "" ],
					"patching_rect" : [ 650.0, 447.5, 74.0, 22.0 ],
					"text" : "connected 0"
				}

			}
, 			{
				"box" : 				{
					"id" : "obj-34",
					"maxclass" : "newobj",
					"numinlets" : 2,
					"numoutlets" : 2,
					"outlettype" : [ "", "" ],
					"patching_rect" : [ 650.0, 389.0, 62.0, 22.0 ],
					"text" : "route stop"
				}

			}
, 			{
				"box" : 				{
					"id" : "obj-21",
					"maxclass" : "message",
					"numinlets" : 2,
					"numoutlets" : 1,
					"outlettype" : [ "" ],
					"patching_rect" : [ 269.5, 632.0, 63.0, 22.0 ],
					"text" : "script stop"
				}

			}
, 			{
				"box" : 				{
					"id" : "obj-16",
					"maxclass" : "newobj",
					"numinlets" : 1,
					"numoutlets" : 0,
					"patching_rect" : [ 1194.799999999999955, 671.0, 58.0, 22.0 ],
					"text" : "print chat"
				}

			}
, 			{
				"box" : 				{
					"comment" : "from server",
					"id" : "obj-29",
					"index" : 0,
					"maxclass" : "outlet",
					"numinlets" : 1,
					"numoutlets" : 0,
					"patching_rect" : [ 533.5, 417.5, 30.0, 30.0 ]
				}

			}
, 			{
				"box" : 				{
					"comment" : "to server",
					"id" : "obj-24",
					"index" : 0,
					"maxclass" : "inlet",
					"numinlets" : 0,
					"numoutlets" : 1,
					"outlettype" : [ "" ],
					"patching_rect" : [ 414.0, 14.5, 30.0, 30.0 ]
				}

			}
, 			{
				"box" : 				{
					"id" : "obj-22",
					"maxclass" : "message",
					"numinlets" : 2,
					"numoutlets" : 1,
					"outlettype" : [ "" ],
					"patching_rect" : [ 658.5, 293.5, 62.0, 22.0 ],
					"text" : "sender $1"
				}

			}
, 			{
				"box" : 				{
					"id" : "obj-5",
					"maxclass" : "newobj",
					"numinlets" : 1,
					"numoutlets" : 0,
					"patching_rect" : [ 1137.200000000000045, 698.0, 117.0, 22.0 ],
					"text" : "print serverMessage"
				}

			}
, 			{
				"box" : 				{
					"id" : "obj-31",
					"maxclass" : "newobj",
					"numinlets" : 1,
					"numoutlets" : 1,
					"outlettype" : [ "" ],
					"patching_rect" : [ 627.0, 723.0, 94.0, 22.0 ],
					"text" : "prepend chat all"
				}

			}
, 			{
				"box" : 				{
					"id" : "obj-11",
					"maxclass" : "newobj",
					"numinlets" : 1,
					"numoutlets" : 1,
					"outlettype" : [ "" ],
					"patching_rect" : [ 627.0, 699.0, 57.0, 22.0 ],
					"style" : "velvet",
					"text" : "tosymbol"
				}

			}
, 			{
				"box" : 				{
					"id" : "obj-36",
					"maxclass" : "newobj",
					"numinlets" : 1,
					"numoutlets" : 2,
					"outlettype" : [ "select", "" ],
					"patcher" : 					{
						"fileversion" : 1,
						"appversion" : 						{
							"major" : 8,
							"minor" : 2,
							"revision" : 1,
							"architecture" : "x64",
							"modernui" : 1
						}
,
						"classnamespace" : "box",
						"rect" : [ 59.0, 81.0, 219.0, 314.0 ],
						"bglocked" : 0,
						"openinpresentation" : 0,
						"default_fontsize" : 12.0,
						"default_fontface" : 0,
						"default_fontname" : "Arial",
						"gridonopen" : 1,
						"gridsize" : [ 15.0, 15.0 ],
						"gridsnaponopen" : 1,
						"objectsnaponopen" : 1,
						"statusbarvisible" : 2,
						"toolbarvisible" : 1,
						"lefttoolbarpinned" : 0,
						"toptoolbarpinned" : 0,
						"righttoolbarpinned" : 0,
						"bottomtoolbarpinned" : 0,
						"toolbars_unpinned_last_save" : 0,
						"tallnewobj" : 0,
						"boxanimatetime" : 200,
						"enablehscroll" : 1,
						"enablevscroll" : 1,
						"devicewidth" : 0.0,
						"description" : "",
						"digest" : "",
						"tags" : "",
						"style" : "",
						"subpatcher_template" : "",
						"assistshowspatchername" : 0,
						"boxes" : [ 							{
								"box" : 								{
									"fontname" : "Arial",
									"fontsize" : 13.0,
									"id" : "obj-20",
									"maxclass" : "newobj",
									"numinlets" : 2,
									"numoutlets" : 2,
									"outlettype" : [ "", "" ],
									"patching_rect" : [ 18.0, 193.5, 74.0, 23.0 ],
									"text" : "route bang"
								}

							}
, 							{
								"box" : 								{
									"fontname" : "Arial",
									"fontsize" : 13.0,
									"id" : "obj-19",
									"maxclass" : "newobj",
									"numinlets" : 1,
									"numoutlets" : 2,
									"outlettype" : [ "select", "clear" ],
									"patching_rect" : [ 18.0, 37.5, 120.0, 23.0 ],
									"text" : "trigger select clear"
								}

							}
, 							{
								"box" : 								{
									"fontname" : "Arial",
									"fontsize" : 13.0,
									"id" : "obj-21",
									"maxclass" : "newobj",
									"numinlets" : 2,
									"numoutlets" : 2,
									"outlettype" : [ "", "" ],
									"patching_rect" : [ 18.0, 165.5, 66.0, 23.0 ],
									"text" : "route text"
								}

							}
, 							{
								"box" : 								{
									"comment" : "",
									"id" : "obj-29",
									"index" : 1,
									"maxclass" : "inlet",
									"numinlets" : 0,
									"numoutlets" : 1,
									"outlettype" : [ "" ],
									"patching_rect" : [ 18.0, 125.0, 30.0, 30.0 ]
								}

							}
, 							{
								"box" : 								{
									"comment" : "",
									"id" : "obj-30",
									"index" : 1,
									"maxclass" : "outlet",
									"numinlets" : 1,
									"numoutlets" : 0,
									"patching_rect" : [ 18.0, 82.0, 30.0, 30.0 ]
								}

							}
, 							{
								"box" : 								{
									"comment" : "",
									"id" : "obj-32",
									"index" : 2,
									"maxclass" : "outlet",
									"numinlets" : 1,
									"numoutlets" : 0,
									"patching_rect" : [ 73.0, 243.0, 30.0, 30.0 ]
								}

							}
 ],
						"lines" : [ 							{
								"patchline" : 								{
									"destination" : [ "obj-30", 0 ],
									"source" : [ "obj-19", 1 ]
								}

							}
, 							{
								"patchline" : 								{
									"destination" : [ "obj-30", 0 ],
									"source" : [ "obj-19", 0 ]
								}

							}
, 							{
								"patchline" : 								{
									"destination" : [ "obj-19", 0 ],
									"midpoints" : [ 82.5, 224.5, 153.0, 224.5, 153.0, 28.5, 27.5, 28.5 ],
									"order" : 1,
									"source" : [ "obj-20", 1 ]
								}

							}
, 							{
								"patchline" : 								{
									"destination" : [ "obj-32", 0 ],
									"order" : 0,
									"source" : [ "obj-20", 1 ]
								}

							}
, 							{
								"patchline" : 								{
									"destination" : [ "obj-20", 0 ],
									"source" : [ "obj-21", 0 ]
								}

							}
, 							{
								"patchline" : 								{
									"destination" : [ "obj-21", 0 ],
									"source" : [ "obj-29", 0 ]
								}

							}
 ]
					}
,
					"patching_rect" : [ 616.0, 673.0, 30.0, 22.0 ],
					"saved_object_attributes" : 					{
						"description" : "",
						"digest" : "",
						"globalpatchername" : "",
						"tags" : ""
					}
,
					"style" : "velvet",
					"text" : "p"
				}

			}
, 			{
				"box" : 				{
					"id" : "obj-28",
					"maxclass" : "newobj",
					"numinlets" : 0,
					"numoutlets" : 1,
					"outlettype" : [ "" ],
					"patching_rect" : [ 397.0, 298.080808080808083, 83.0, 22.0 ],
					"text" : "r toCH-Server"
				}

			}
, 			{
				"box" : 				{
					"id" : "obj-27",
					"maxclass" : "newobj",
					"numinlets" : 1,
					"numoutlets" : 0,
					"patching_rect" : [ 180.5, 769.0, 118.0, 22.0 ],
					"text" : "send #0_localServer"
				}

			}
, 			{
				"box" : 				{
					"id" : "obj-18",
					"maxclass" : "newobj",
					"numinlets" : 1,
					"numoutlets" : 1,
					"outlettype" : [ "" ],
					"patching_rect" : [ 374.0, 635.0, 131.0, 22.0 ],
					"text" : "prepend addUsername"
				}

			}
, 			{
				"box" : 				{
					"id" : "obj-7",
					"maxclass" : "newobj",
					"numinlets" : 1,
					"numoutlets" : 2,
					"outlettype" : [ "bang", "int" ],
					"patching_rect" : [ 374.0, 587.0, 32.0, 22.0 ],
					"text" : "t b 1"
				}

			}
, 			{
				"box" : 				{
					"id" : "obj-12",
					"maxclass" : "newobj",
					"numinlets" : 2,
					"numoutlets" : 3,
					"outlettype" : [ "", "bang", "bang" ],
					"patching_rect" : [ 374.0, 611.0, 199.0, 22.0 ],
					"text" : "dialog Enter username (no spaces):"
				}

			}
, 			{
				"box" : 				{
					"id" : "obj-26",
					"maxclass" : "newobj",
					"numinlets" : 6,
					"numoutlets" : 6,
					"outlettype" : [ "", "", "", "", "", "" ],
					"patching_rect" : [ 1022.0, 632.0, 307.0, 22.0 ],
					"text" : "route allUsersView connected serverMessage chat error"
				}

			}
, 			{
				"box" : 				{
					"id" : "obj-25",
					"maxclass" : "newobj",
					"numinlets" : 0,
					"numoutlets" : 1,
					"outlettype" : [ "" ],
					"patching_rect" : [ 1114.200000000000045, 542.0, 97.0, 22.0 ],
					"text" : "r fromCH-Server"
				}

			}
, 			{
				"box" : 				{
					"id" : "obj-23",
					"maxclass" : "message",
					"numinlets" : 2,
					"numoutlets" : 1,
					"outlettype" : [ "" ],
					"patching_rect" : [ 182.0, 632.0, 64.0, 22.0 ],
					"text" : "script start"
				}

			}
, 			{
				"box" : 				{
					"id" : "obj-13",
					"maxclass" : "newobj",
					"numinlets" : 1,
					"numoutlets" : 0,
					"patching_rect" : [ 504.0, 488.0, 99.0, 22.0 ],
					"text" : "s fromCH-Server"
				}

			}
, 			{
				"box" : 				{
					"id" : "obj-4",
					"maxclass" : "newobj",
					"numinlets" : 1,
					"numoutlets" : 2,
					"outlettype" : [ "", "" ],
					"patching_rect" : [ 504.0, 339.5, 165.0, 22.0 ],
					"saved_object_attributes" : 					{
						"autostart" : 0,
						"defer" : 0,
						"watch" : 0
					}
,
					"text" : "node.script CH-ClientScript.js"
				}

			}
, 			{
				"box" : 				{
					"bgcolor" : [ 0.2, 0.2, 0.2, 1.0 ],
					"bordercolor" : [ 0.4, 0.403921568627451, 0.4, 1.0 ],
					"fontname" : "Arial",
					"id" : "obj-17",
					"keymode" : 1,
					"maxclass" : "textedit",
					"numinlets" : 1,
					"numoutlets" : 4,
					"outlettype" : [ "", "int", "", "" ],
					"parameter_enable" : 0,
					"patching_rect" : [ 616.0, 544.0, 125.0, 128.0 ],
					"presentation" : 1,
					"presentation_rect" : [ 4.0, 51.0, 155.0, 114.0 ],
					"rounded" : 0.0,
					"style" : "velvet",
					"tabmode" : 0
				}

			}
, 			{
				"box" : 				{
					"id" : "obj-9",
					"maxclass" : "dict.view",
					"numinlets" : 1,
					"numoutlets" : 0,
					"patching_rect" : [ 1022.0, 739.0, 125.0, 128.0 ],
					"presentation" : 1,
					"presentation_rect" : [ 163.0, 51.0, 155.0, 114.0 ],
					"stripecolor" : [ 0.4, 0.403921568627451, 0.4, 1.0 ],
					"style" : "default",
					"textcolor" : [ 1.0, 1.0, 1.0, 1.0 ]
				}

			}
, 			{
				"box" : 				{
					"fontface" : 0,
					"fontname" : "Arial",
					"id" : "obj-6",
					"maxclass" : "comment",
					"numinlets" : 1,
					"numoutlets" : 0,
					"patching_rect" : [ 616.0, 520.0, 128.0, 20.0 ],
					"presentation" : 1,
					"presentation_rect" : [ 4.0, 26.0, 108.0, 20.0 ],
					"style" : "velvet",
					"text" : "Simple Chat",
					"textcolor" : [ 0.2, 0.2, 0.2, 1.0 ]
				}

			}
, 			{
				"box" : 				{
					"bgcolor" : [ 0.2, 0.2, 0.2, 1.0 ],
					"fontname" : "Arial",
					"hidden" : 1,
					"id" : "obj-3",
					"maxclass" : "textbutton",
					"numinlets" : 1,
					"numoutlets" : 3,
					"outlettype" : [ "", "", "int" ],
					"parameter_enable" : 0,
					"patching_rect" : [ 374.0, 563.0, 110.0, 20.0 ],
					"presentation" : 1,
					"presentation_rect" : [ 186.5, 26.0, 108.0, 18.0 ],
					"style" : "velvet",
					"text" : "Change Username",
					"textoncolor" : [ 1.0, 1.0, 1.0, 1.0 ]
				}

			}
, 			{
				"box" : 				{
					"bgcolor" : [ 0.2, 0.2, 0.2, 1.0 ],
					"id" : "obj-2",
					"ignoreclick" : 1,
					"maxclass" : "led",
					"numinlets" : 1,
					"numoutlets" : 1,
					"offcolor" : [ 0.4, 0.403921568627451, 0.4, 1.0 ],
					"oncolor" : [ 1.0, 1.0, 1.0, 1.0 ],
					"outlettype" : [ "int" ],
					"parameter_enable" : 0,
					"patching_rect" : [ 1079.599999999999909, 671.0, 20.0, 20.0 ],
					"presentation" : 1,
					"presentation_rect" : [ 300.0, 26.0, 18.0, 18.0 ],
					"style" : "velvet"
				}

			}
, 			{
				"box" : 				{
					"bgcolor" : [ 0.2, 0.2, 0.2, 1.0 ],
					"fontname" : "Arial",
					"id" : "obj-1",
					"maxclass" : "textbutton",
					"mode" : 1,
					"numinlets" : 1,
					"numoutlets" : 3,
					"outlettype" : [ "", "", "int" ],
					"parameter_enable" : 0,
					"patching_rect" : [ 200.5, 490.0, 55.0, 20.0 ],
					"presentation" : 1,
					"presentation_rect" : [ 239.0, 4.0, 79.0, 18.0 ],
					"style" : "velvet",
					"text" : "Connect",
					"textcolor" : [ 1.0, 1.0, 1.0, 1.0 ],
					"texton" : "Disconnect",
					"textoncolor" : [ 1.0, 1.0, 1.0, 1.0 ],
					"textovercolor" : [ 0.552941176470588, 0.929411764705882, 0.352941176470588, 1.0 ]
				}

			}
, 			{
				"box" : 				{
					"angle" : 270.0,
					"background" : 1,
					"bgcolor" : [ 0.6, 0.8, 0.6, 1.0 ],
					"id" : "obj-48",
					"maxclass" : "panel",
					"mode" : 0,
					"numinlets" : 1,
					"numoutlets" : 0,
					"patching_rect" : [ -1.0, -1.0, 171.0, 184.0 ],
					"presentation" : 1,
					"presentation_rect" : [ 0.0, 0.0, 322.0, 169.0 ],
					"proportion" : 0.5,
					"rounded" : 0
				}

			}
, 			{
				"box" : 				{
					"background" : 1,
					"id" : "obj-95",
					"maxclass" : "message",
					"numinlets" : 2,
					"numoutlets" : 1,
					"outlettype" : [ "" ],
					"patching_rect" : [ 79.5, 112.0, 50.0, 22.0 ],
					"text" : "372"
				}

			}
, 			{
				"box" : 				{
					"background" : 1,
					"id" : "obj-91",
					"maxclass" : "newobj",
					"numinlets" : 2,
					"numoutlets" : 2,
					"outlettype" : [ "bang", "" ],
					"patching_rect" : [ 7.0, 113.0, 70.0, 22.0 ],
					"text" : "select 4206"
				}

			}
, 			{
				"box" : 				{
					"background" : 1,
					"id" : "obj-90",
					"maxclass" : "message",
					"numinlets" : 2,
					"numoutlets" : 1,
					"outlettype" : [ "" ],
					"patching_rect" : [ 7.0, 141.5, 35.0, 22.0 ],
					"text" : "open"
				}

			}
, 			{
				"box" : 				{
					"background" : 1,
					"id" : "obj-84",
					"maxclass" : "newobj",
					"numinlets" : 1,
					"numoutlets" : 3,
					"outlettype" : [ "", "bang", "int" ],
					"patching_rect" : [ 48.5, 141.5, 89.0, 22.0 ],
					"text" : "text config.json"
				}

			}
, 			{
				"box" : 				{
					"background" : 1,
					"id" : "obj-70",
					"maxclass" : "newobj",
					"numinlets" : 4,
					"numoutlets" : 1,
					"outlettype" : [ "" ],
					"patching_rect" : [ 7.0, 50.0, 68.0, 22.0 ],
					"text" : "pak 0 0 0 0"
				}

			}
, 			{
				"box" : 				{
					"background" : 1,
					"id" : "obj-62",
					"maxclass" : "newobj",
					"numinlets" : 2,
					"numoutlets" : 2,
					"outlettype" : [ "", "" ],
					"patching_rect" : [ 7.0, 79.0, 46.0, 22.0 ],
					"text" : "zl.sum"
				}

			}
, 			{
				"box" : 				{
					"background" : 1,
					"id" : "obj-61",
					"maxclass" : "newobj",
					"numinlets" : 0,
					"numoutlets" : 4,
					"outlettype" : [ "int", "int", "int", "int" ],
					"patching_rect" : [ 7.0, 16.0, 50.5, 22.0 ],
					"text" : "key"
				}

			}
 ],
		"lines" : [ 			{
				"patchline" : 				{
					"destination" : [ "obj-37", 0 ],
					"order" : 2,
					"source" : [ "obj-1", 0 ]
				}

			}
, 			{
				"patchline" : 				{
					"destination" : [ "obj-46", 0 ],
					"order" : 0,
					"source" : [ "obj-1", 0 ]
				}

			}
, 			{
				"patchline" : 				{
					"destination" : [ "obj-86", 0 ],
					"order" : 4,
					"source" : [ "obj-1", 0 ]
				}

			}
, 			{
				"patchline" : 				{
					"destination" : [ "obj-87", 0 ],
					"order" : 1,
					"source" : [ "obj-1", 0 ]
				}

			}
, 			{
				"patchline" : 				{
					"destination" : [ "obj-93", 0 ],
					"order" : 3,
					"source" : [ "obj-1", 0 ]
				}

			}
, 			{
				"patchline" : 				{
					"destination" : [ "obj-4", 0 ],
					"midpoints" : [ 820.5, 327.0, 513.5, 327.0 ],
					"source" : [ "obj-100", 0 ]
				}

			}
, 			{
				"patchline" : 				{
					"destination" : [ "obj-26", 0 ],
					"source" : [ "obj-105", 0 ]
				}

			}
, 			{
				"patchline" : 				{
					"destination" : [ "obj-58", 0 ],
					"midpoints" : [ 398.5, 458.0, 398.5, 458.0 ],
					"source" : [ "obj-106", 0 ]
				}

			}
, 			{
				"patchline" : 				{
					"destination" : [ "obj-1", 0 ],
					"source" : [ "obj-108", 0 ]
				}

			}
, 			{
				"patchline" : 				{
					"destination" : [ "obj-31", 0 ],
					"source" : [ "obj-11", 0 ]
				}

			}
, 			{
				"patchline" : 				{
					"destination" : [ "obj-10", 0 ],
					"order" : 0,
					"source" : [ "obj-12", 0 ]
				}

			}
, 			{
				"patchline" : 				{
					"destination" : [ "obj-18", 0 ],
					"order" : 1,
					"source" : [ "obj-12", 0 ]
				}

			}
, 			{
				"patchline" : 				{
					"destination" : [ "obj-74", 1 ],
					"source" : [ "obj-14", 0 ]
				}

			}
, 			{
				"patchline" : 				{
					"destination" : [ "obj-76", 1 ],
					"source" : [ "obj-15", 0 ]
				}

			}
, 			{
				"patchline" : 				{
					"destination" : [ "obj-36", 0 ],
					"source" : [ "obj-17", 0 ]
				}

			}
, 			{
				"patchline" : 				{
					"destination" : [ "obj-27", 0 ],
					"source" : [ "obj-18", 0 ]
				}

			}
, 			{
				"patchline" : 				{
					"destination" : [ "obj-33", 0 ],
					"midpoints" : [ 855.5, 264.0, 668.0, 264.0 ],
					"source" : [ "obj-19", 0 ]
				}

			}
, 			{
				"patchline" : 				{
					"destination" : [ "obj-33", 0 ],
					"source" : [ "obj-20", 0 ]
				}

			}
, 			{
				"patchline" : 				{
					"destination" : [ "obj-27", 0 ],
					"source" : [ "obj-21", 0 ]
				}

			}
, 			{
				"patchline" : 				{
					"destination" : [ "obj-4", 0 ],
					"midpoints" : [ 668.0, 327.0, 513.5, 327.0 ],
					"source" : [ "obj-22", 0 ]
				}

			}
, 			{
				"patchline" : 				{
					"destination" : [ "obj-27", 0 ],
					"source" : [ "obj-23", 0 ]
				}

			}
, 			{
				"patchline" : 				{
					"destination" : [ "obj-49", 0 ],
					"source" : [ "obj-24", 0 ]
				}

			}
, 			{
				"patchline" : 				{
					"destination" : [ "obj-59", 1 ],
					"source" : [ "obj-25", 0 ]
				}

			}
, 			{
				"patchline" : 				{
					"destination" : [ "obj-16", 0 ],
					"source" : [ "obj-26", 3 ]
				}

			}
, 			{
				"patchline" : 				{
					"destination" : [ "obj-2", 0 ],
					"source" : [ "obj-26", 1 ]
				}

			}
, 			{
				"patchline" : 				{
					"destination" : [ "obj-30", 0 ],
					"source" : [ "obj-26", 4 ]
				}

			}
, 			{
				"patchline" : 				{
					"destination" : [ "obj-42", 0 ],
					"source" : [ "obj-26", 0 ]
				}

			}
, 			{
				"patchline" : 				{
					"destination" : [ "obj-5", 0 ],
					"source" : [ "obj-26", 2 ]
				}

			}
, 			{
				"patchline" : 				{
					"destination" : [ "obj-69", 1 ],
					"midpoints" : [ 406.5, 327.290404040404042, 346.5, 327.290404040404042 ],
					"source" : [ "obj-28", 0 ]
				}

			}
, 			{
				"patchline" : 				{
					"destination" : [ "obj-7", 0 ],
					"source" : [ "obj-3", 0 ]
				}

			}
, 			{
				"patchline" : 				{
					"destination" : [ "obj-27", 0 ],
					"midpoints" : [ 636.5, 749.875, 190.0, 749.875 ],
					"source" : [ "obj-31", 0 ]
				}

			}
, 			{
				"patchline" : 				{
					"destination" : [ "obj-22", 0 ],
					"source" : [ "obj-33", 0 ]
				}

			}
, 			{
				"patchline" : 				{
					"destination" : [ "obj-40", 0 ],
					"midpoints" : [ 659.5, 423.25, 764.5, 423.25 ],
					"order" : 0,
					"source" : [ "obj-34", 0 ]
				}

			}
, 			{
				"patchline" : 				{
					"destination" : [ "obj-41", 0 ],
					"order" : 1,
					"source" : [ "obj-34", 0 ]
				}

			}
, 			{
				"patchline" : 				{
					"destination" : [ "obj-1", 0 ],
					"order" : 1,
					"source" : [ "obj-35", 0 ]
				}

			}
, 			{
				"patchline" : 				{
					"destination" : [ "obj-46", 0 ],
					"order" : 0,
					"source" : [ "obj-35", 0 ]
				}

			}
, 			{
				"patchline" : 				{
					"destination" : [ "obj-11", 0 ],
					"source" : [ "obj-36", 1 ]
				}

			}
, 			{
				"patchline" : 				{
					"destination" : [ "obj-17", 0 ],
					"source" : [ "obj-36", 0 ]
				}

			}
, 			{
				"patchline" : 				{
					"destination" : [ "obj-21", 0 ],
					"source" : [ "obj-37", 1 ]
				}

			}
, 			{
				"patchline" : 				{
					"destination" : [ "obj-23", 0 ],
					"source" : [ "obj-37", 0 ]
				}

			}
, 			{
				"patchline" : 				{
					"destination" : [ "obj-49", 0 ],
					"midpoints" : [ 475.5, 83.0, 423.5, 83.0 ],
					"source" : [ "obj-39", 0 ]
				}

			}
, 			{
				"patchline" : 				{
					"destination" : [ "obj-106", 0 ],
					"midpoints" : [ 513.5, 380.0, 398.5, 380.0 ],
					"order" : 2,
					"source" : [ "obj-4", 0 ]
				}

			}
, 			{
				"patchline" : 				{
					"destination" : [ "obj-13", 0 ],
					"order" : 1,
					"source" : [ "obj-4", 0 ]
				}

			}
, 			{
				"patchline" : 				{
					"destination" : [ "obj-29", 0 ],
					"midpoints" : [ 513.5, 389.0, 543.0, 389.0 ],
					"order" : 0,
					"source" : [ "obj-4", 0 ]
				}

			}
, 			{
				"patchline" : 				{
					"destination" : [ "obj-34", 0 ],
					"order" : 1,
					"source" : [ "obj-4", 1 ]
				}

			}
, 			{
				"patchline" : 				{
					"destination" : [ "obj-50", 0 ],
					"midpoints" : [ 659.5, 374.75, 748.0, 374.75 ],
					"order" : 0,
					"source" : [ "obj-4", 1 ]
				}

			}
, 			{
				"patchline" : 				{
					"destination" : [ "obj-32", 0 ],
					"source" : [ "obj-40", 0 ]
				}

			}
, 			{
				"patchline" : 				{
					"destination" : [ "obj-13", 0 ],
					"midpoints" : [ 659.5, 479.5, 513.5, 479.5 ],
					"order" : 1,
					"source" : [ "obj-41", 0 ]
				}

			}
, 			{
				"patchline" : 				{
					"destination" : [ "obj-32", 0 ],
					"midpoints" : [ 659.5, 480.25, 764.5, 480.25 ],
					"order" : 0,
					"source" : [ "obj-41", 0 ]
				}

			}
, 			{
				"patchline" : 				{
					"destination" : [ "obj-9", 0 ],
					"source" : [ "obj-42", 0 ]
				}

			}
, 			{
				"patchline" : 				{
					"destination" : [ "obj-72", 1 ],
					"source" : [ "obj-43", 0 ]
				}

			}
, 			{
				"patchline" : 				{
					"destination" : [ "obj-42", 0 ],
					"midpoints" : [ 915.5, 673.0, 1031.5, 673.0 ],
					"source" : [ "obj-44", 0 ]
				}

			}
, 			{
				"patchline" : 				{
					"destination" : [ "obj-26", 0 ],
					"order" : 0,
					"source" : [ "obj-45", 0 ]
				}

			}
, 			{
				"patchline" : 				{
					"destination" : [ "obj-44", 0 ],
					"order" : 1,
					"source" : [ "obj-45", 0 ]
				}

			}
, 			{
				"patchline" : 				{
					"destination" : [ "obj-51", 0 ],
					"source" : [ "obj-46", 0 ]
				}

			}
, 			{
				"patchline" : 				{
					"destination" : [ "obj-39", 0 ],
					"source" : [ "obj-47", 0 ]
				}

			}
, 			{
				"patchline" : 				{
					"destination" : [ "obj-81", 1 ],
					"source" : [ "obj-49", 2 ]
				}

			}
, 			{
				"patchline" : 				{
					"destination" : [ "obj-89", 0 ],
					"midpoints" : [ 477.5, 288.5, 210.0, 288.5 ],
					"source" : [ "obj-49", 1 ]
				}

			}
, 			{
				"patchline" : 				{
					"destination" : [ "obj-3", 0 ],
					"source" : [ "obj-51", 0 ]
				}

			}
, 			{
				"patchline" : 				{
					"destination" : [ "obj-51", 0 ],
					"source" : [ "obj-52", 0 ]
				}

			}
, 			{
				"patchline" : 				{
					"destination" : [ "obj-55", 0 ],
					"source" : [ "obj-53", 0 ]
				}

			}
, 			{
				"patchline" : 				{
					"destination" : [ "obj-59", 0 ],
					"midpoints" : [ 1031.5, 575.75, 1031.5, 575.75 ],
					"source" : [ "obj-54", 0 ]
				}

			}
, 			{
				"patchline" : 				{
					"destination" : [ "obj-60", 0 ],
					"source" : [ "obj-57", 0 ]
				}

			}
, 			{
				"patchline" : 				{
					"destination" : [ "obj-26", 0 ],
					"source" : [ "obj-59", 0 ]
				}

			}
, 			{
				"patchline" : 				{
					"destination" : [ "obj-56", 0 ],
					"source" : [ "obj-60", 0 ]
				}

			}
, 			{
				"patchline" : 				{
					"destination" : [ "obj-70", 3 ],
					"source" : [ "obj-61", 3 ]
				}

			}
, 			{
				"patchline" : 				{
					"destination" : [ "obj-70", 2 ],
					"source" : [ "obj-61", 2 ]
				}

			}
, 			{
				"patchline" : 				{
					"destination" : [ "obj-70", 1 ],
					"source" : [ "obj-61", 1 ]
				}

			}
, 			{
				"patchline" : 				{
					"destination" : [ "obj-70", 0 ],
					"source" : [ "obj-61", 0 ]
				}

			}
, 			{
				"patchline" : 				{
					"destination" : [ "obj-78", 0 ],
					"order" : 1,
					"source" : [ "obj-62", 0 ]
				}

			}
, 			{
				"patchline" : 				{
					"destination" : [ "obj-91", 0 ],
					"order" : 2,
					"source" : [ "obj-62", 0 ]
				}

			}
, 			{
				"patchline" : 				{
					"destination" : [ "obj-95", 1 ],
					"midpoints" : [ 16.5, 106.0, 120.0, 106.0 ],
					"order" : 0,
					"source" : [ "obj-62", 0 ]
				}

			}
, 			{
				"patchline" : 				{
					"destination" : [ "obj-38", 0 ],
					"source" : [ "obj-64", 0 ]
				}

			}
, 			{
				"patchline" : 				{
					"destination" : [ "obj-81", 0 ],
					"midpoints" : [ 513.5, 178.540404040404042, 513.5, 178.540404040404042 ],
					"source" : [ "obj-66", 0 ]
				}

			}
, 			{
				"patchline" : 				{
					"destination" : [ "obj-87", 1 ],
					"source" : [ "obj-67", 0 ]
				}

			}
, 			{
				"patchline" : 				{
					"destination" : [ "obj-69", 0 ],
					"midpoints" : [ 323.5, 334.25, 323.5, 334.25 ],
					"source" : [ "obj-68", 0 ]
				}

			}
, 			{
				"patchline" : 				{
					"destination" : [ "obj-4", 0 ],
					"midpoints" : [ 323.5, 358.5, 408.5, 358.5, 408.5, 328.5, 513.5, 328.5 ],
					"source" : [ "obj-69", 0 ]
				}

			}
, 			{
				"patchline" : 				{
					"destination" : [ "obj-12", 1 ],
					"source" : [ "obj-7", 1 ]
				}

			}
, 			{
				"patchline" : 				{
					"destination" : [ "obj-12", 0 ],
					"source" : [ "obj-7", 0 ]
				}

			}
, 			{
				"patchline" : 				{
					"destination" : [ "obj-62", 0 ],
					"source" : [ "obj-70", 0 ]
				}

			}
, 			{
				"patchline" : 				{
					"destination" : [ "obj-67", 0 ],
					"order" : 0,
					"source" : [ "obj-71", 0 ]
				}

			}
, 			{
				"patchline" : 				{
					"destination" : [ "obj-72", 0 ],
					"midpoints" : [ 328.5, 410.25, 210.0, 410.25 ],
					"order" : 1,
					"source" : [ "obj-71", 0 ]
				}

			}
, 			{
				"patchline" : 				{
					"destination" : [ "obj-35", 0 ],
					"source" : [ "obj-72", 0 ]
				}

			}
, 			{
				"patchline" : 				{
					"destination" : [ "obj-74", 0 ],
					"midpoints" : [ 790.5, 155.25, 855.5, 155.25 ],
					"source" : [ "obj-73", 0 ]
				}

			}
, 			{
				"patchline" : 				{
					"destination" : [ "obj-19", 0 ],
					"source" : [ "obj-74", 0 ]
				}

			}
, 			{
				"patchline" : 				{
					"destination" : [ "obj-76", 0 ],
					"midpoints" : [ 608.5, 155.25, 668.0, 155.25 ],
					"source" : [ "obj-75", 0 ]
				}

			}
, 			{
				"patchline" : 				{
					"destination" : [ "obj-20", 0 ],
					"source" : [ "obj-76", 0 ]
				}

			}
, 			{
				"patchline" : 				{
					"destination" : [ "obj-4", 0 ],
					"source" : [ "obj-81", 0 ]
				}

			}
, 			{
				"patchline" : 				{
					"destination" : [ "obj-108", 0 ],
					"source" : [ "obj-87", 0 ]
				}

			}
, 			{
				"patchline" : 				{
					"destination" : [ "obj-35", 0 ],
					"source" : [ "obj-89", 0 ]
				}

			}
, 			{
				"patchline" : 				{
					"destination" : [ "obj-84", 0 ],
					"source" : [ "obj-90", 0 ]
				}

			}
, 			{
				"patchline" : 				{
					"destination" : [ "obj-90", 0 ],
					"source" : [ "obj-91", 0 ]
				}

			}
, 			{
				"patchline" : 				{
					"destination" : [ "obj-92", 0 ],
					"source" : [ "obj-93", 0 ]
				}

			}
 ],
		"dependency_cache" : [ 			{
				"name" : "CH-ClientScript.js",
				"bootpath" : "~/GitHub/Collab-Hub-Client-SH/javascript",
				"patcherrelativepath" : "../javascript",
				"type" : "TEXT",
				"implicit" : 1
			}
, 			{
				"name" : "CH-Client-Title.png",
				"bootpath" : "~/GitHub/Collab-Hub-Client-SH/media/img/for-bpatchers",
				"patcherrelativepath" : "../media/img/for-bpatchers",
				"type" : "PNG",
				"implicit" : 1
			}
 ],
		"autosave" : 0,
		"boxgroups" : [ 			{
				"boxes" : [ "obj-84", "obj-91", "obj-95", "obj-62", "obj-90", "obj-70", "obj-61" ]
			}
 ]
	}

}
