{
	"patcher" : 	{
		"fileversion" : 1,
		"appversion" : 		{
			"major" : 8,
			"minor" : 2,
			"revision" : 1,
			"architecture" : "x64",
			"modernui" : 1
		}
,
		"classnamespace" : "box",
		"rect" : [ 85.0, 62.0, 854.0, 864.0 ],
		"bglocked" : 0,
		"openinpresentation" : 0,
		"default_fontsize" : 12.0,
		"default_fontface" : 0,
		"default_fontname" : "Arial",
		"gridonopen" : 1,
		"gridsize" : [ 15.0, 15.0 ],
		"gridsnaponopen" : 1,
		"objectsnaponopen" : 1,
		"statusbarvisible" : 2,
		"toolbarvisible" : 1,
		"lefttoolbarpinned" : 0,
		"toptoolbarpinned" : 0,
		"righttoolbarpinned" : 0,
		"bottomtoolbarpinned" : 0,
		"toolbars_unpinned_last_save" : 0,
		"tallnewobj" : 0,
		"boxanimatetime" : 200,
		"enablehscroll" : 1,
		"enablevscroll" : 1,
		"devicewidth" : 0.0,
		"description" : "",
		"digest" : "",
		"tags" : "",
		"style" : "",
		"subpatcher_template" : "",
		"assistshowspatchername" : 0,
		"boxes" : [ 			{
				"box" : 				{
					"fontname" : "Lato",
					"fontsize" : 13.0,
					"id" : "obj-50",
					"maxclass" : "comment",
					"numinlets" : 1,
					"numoutlets" : 0,
					"patching_rect" : [ 15.5, 574.0, 463.0, 22.0 ],
					"presentation" : 1,
					"presentation_linecount" : 2,
					"presentation_rect" : [ 375.0, 279.833331882953644, 322.0, 38.0 ],
					"text" : "Disable this CH-Client BPatcher if you already have an instance elsewhere"
				}

			}
, 			{
				"box" : 				{
					"fontname" : "Lato",
					"fontsize" : 13.0,
					"id" : "obj-47",
					"linecount" : 2,
					"maxclass" : "comment",
					"numinlets" : 1,
					"numoutlets" : 0,
					"patching_rect" : [ 24.5, 111.0, 345.0, 38.0 ],
					"presentation" : 1,
					"presentation_linecount" : 2,
					"presentation_rect" : [ 18.5, 108.0, 303.0, 38.0 ],
					"text" : "This is using PUSH routing, so conductees do not need to observe these CONTROL or EVENT names."
				}

			}
, 			{
				"box" : 				{
					"id" : "obj-43",
					"maxclass" : "button",
					"numinlets" : 1,
					"numoutlets" : 1,
					"outlettype" : [ "bang" ],
					"parameter_enable" : 0,
					"patching_rect" : [ 296.166666666666686, 464.0, 24.0, 24.0 ],
					"presentation" : 1,
					"presentation_rect" : [ 268.166666666666686, 337.833331882953644, 24.0, 24.0 ]
				}

			}
, 			{
				"box" : 				{
					"id" : "obj-44",
					"maxclass" : "button",
					"numinlets" : 1,
					"numoutlets" : 1,
					"outlettype" : [ "bang" ],
					"parameter_enable" : 0,
					"patching_rect" : [ 249.833333333333314, 464.0, 24.0, 24.0 ],
					"presentation" : 1,
					"presentation_rect" : [ 221.833333333333314, 337.833331882953644, 24.0, 24.0 ]
				}

			}
, 			{
				"box" : 				{
					"id" : "obj-45",
					"maxclass" : "button",
					"numinlets" : 1,
					"numoutlets" : 1,
					"outlettype" : [ "bang" ],
					"parameter_enable" : 0,
					"patching_rect" : [ 203.5, 464.0, 24.0, 24.0 ],
					"presentation" : 1,
					"presentation_rect" : [ 175.5, 337.833331882953644, 24.0, 24.0 ]
				}

			}
, 			{
				"box" : 				{
					"id" : "obj-42",
					"maxclass" : "newobj",
					"numinlets" : 4,
					"numoutlets" : 4,
					"outlettype" : [ "", "", "", "" ],
					"patching_rect" : [ 203.5, 386.0, 158.0, 22.0 ],
					"presentation" : 1,
					"presentation_rect" : [ 175.5, 259.833331882953644, 158.0, 22.0 ],
					"text" : "route Event1 Event2 Event3"
				}

			}
, 			{
				"box" : 				{
					"id" : "obj-40",
					"maxclass" : "message",
					"numinlets" : 2,
					"numoutlets" : 1,
					"outlettype" : [ "" ],
					"patching_rect" : [ 317.5, 153.0, 46.0, 22.0 ],
					"presentation" : 1,
					"presentation_rect" : [ 292.5, 160.0, 46.0, 22.0 ],
					"text" : "Event3"
				}

			}
, 			{
				"box" : 				{
					"id" : "obj-39",
					"maxclass" : "message",
					"numinlets" : 2,
					"numoutlets" : 1,
					"outlettype" : [ "" ],
					"patching_rect" : [ 257.5, 153.0, 46.0, 22.0 ],
					"presentation" : 1,
					"presentation_rect" : [ 232.5, 160.0, 46.0, 22.0 ],
					"text" : "Event2"
				}

			}
, 			{
				"box" : 				{
					"id" : "obj-38",
					"maxclass" : "message",
					"numinlets" : 2,
					"numoutlets" : 1,
					"outlettype" : [ "" ],
					"patching_rect" : [ 197.5, 153.0, 46.0, 22.0 ],
					"presentation" : 1,
					"presentation_rect" : [ 172.5, 160.0, 46.0, 22.0 ],
					"text" : "Event1"
				}

			}
, 			{
				"box" : 				{
					"fontname" : "Lato",
					"fontsize" : 13.0,
					"id" : "obj-32",
					"linecount" : 2,
					"maxclass" : "comment",
					"numinlets" : 1,
					"numoutlets" : 0,
					"patching_rect" : [ 270.5, 225.0, 89.0, 38.0 ],
					"text" : "As individual Events"
				}

			}
, 			{
				"box" : 				{
					"id" : "obj-36",
					"maxclass" : "message",
					"numinlets" : 2,
					"numoutlets" : 1,
					"outlettype" : [ "" ],
					"patching_rect" : [ 197.5, 205.0, 67.0, 22.0 ],
					"text" : "push all $1"
				}

			}
, 			{
				"box" : 				{
					"id" : "obj-37",
					"maxclass" : "newobj",
					"numinlets" : 1,
					"numoutlets" : 0,
					"patching_rect" : [ 197.5, 266.0, 85.0, 22.0 ],
					"text" : "s toCH-Server"
				}

			}
, 			{
				"box" : 				{
					"fontname" : "Lato",
					"fontsize" : 13.0,
					"id" : "obj-31",
					"maxclass" : "comment",
					"numinlets" : 1,
					"numoutlets" : 0,
					"patching_rect" : [ 62.0, 238.0, 88.0, 22.0 ],
					"text" : "As a Control"
				}

			}
, 			{
				"box" : 				{
					"bgmode" : 0,
					"border" : 0,
					"clickthrough" : 0,
					"enablehscroll" : 0,
					"enablevscroll" : 0,
					"id" : "obj-128",
					"lockeddragscroll" : 0,
					"lockedsize" : 0,
					"maxclass" : "bpatcher",
					"name" : "CH-Client.maxpat",
					"numinlets" : 1,
					"numoutlets" : 2,
					"offset" : [ 0.0, 0.0 ],
					"outlettype" : [ "", "" ],
					"patching_rect" : [ 15.5, 610.0, 322.0, 169.0 ],
					"presentation" : 1,
					"presentation_rect" : [ 375.0, 102.0, 322.0, 169.0 ],
					"prototypename" : "CH-CLIENT",
					"viewvisibility" : 1
				}

			}
, 			{
				"box" : 				{
					"id" : "obj-28",
					"maxclass" : "newobj",
					"numinlets" : 1,
					"numoutlets" : 0,
					"patching_rect" : [ 33.5, 497.0, 79.0, 22.0 ],
					"text" : "print Section:"
				}

			}
, 			{
				"box" : 				{
					"id" : "obj-27",
					"maxclass" : "button",
					"numinlets" : 1,
					"numoutlets" : 1,
					"outlettype" : [ "bang" ],
					"parameter_enable" : 0,
					"patching_rect" : [ 118.5, 464.0, 24.0, 24.0 ],
					"presentation" : 1,
					"presentation_rect" : [ 90.5, 337.833331882953644, 24.0, 24.0 ]
				}

			}
, 			{
				"box" : 				{
					"id" : "obj-25",
					"maxclass" : "button",
					"numinlets" : 1,
					"numoutlets" : 1,
					"outlettype" : [ "bang" ],
					"parameter_enable" : 0,
					"patching_rect" : [ 82.0, 464.0, 24.0, 24.0 ],
					"presentation" : 1,
					"presentation_rect" : [ 54.0, 337.833331882953644, 24.0, 24.0 ]
				}

			}
, 			{
				"box" : 				{
					"id" : "obj-23",
					"maxclass" : "button",
					"numinlets" : 1,
					"numoutlets" : 1,
					"outlettype" : [ "bang" ],
					"parameter_enable" : 0,
					"patching_rect" : [ 51.5, 464.0, 24.0, 24.0 ],
					"presentation" : 1,
					"presentation_rect" : [ 23.5, 337.833331882953644, 24.0, 24.0 ]
				}

			}
, 			{
				"box" : 				{
					"id" : "obj-21",
					"maxclass" : "newobj",
					"numinlets" : 4,
					"numoutlets" : 4,
					"outlettype" : [ "bang", "bang", "bang", "" ],
					"patching_rect" : [ 51.5, 421.0, 70.0, 22.0 ],
					"presentation" : 1,
					"presentation_rect" : [ 23.5, 294.833331882953644, 70.0, 22.0 ],
					"text" : "select 1 2 3"
				}

			}
, 			{
				"box" : 				{
					"id" : "obj-20",
					"maxclass" : "newobj",
					"numinlets" : 2,
					"numoutlets" : 2,
					"outlettype" : [ "", "" ],
					"patching_rect" : [ 51.5, 386.0, 79.0, 22.0 ],
					"presentation" : 1,
					"presentation_rect" : [ 23.5, 259.833331882953644, 79.0, 22.0 ],
					"text" : "route Section"
				}

			}
, 			{
				"box" : 				{
					"id" : "obj-19",
					"maxclass" : "newobj",
					"numinlets" : 0,
					"numoutlets" : 1,
					"outlettype" : [ "" ],
					"patching_rect" : [ 51.5, 348.0, 97.0, 22.0 ],
					"presentation" : 1,
					"presentation_rect" : [ 23.5, 221.833331882953644, 97.0, 22.0 ],
					"text" : "r fromCH-Server"
				}

			}
, 			{
				"box" : 				{
					"id" : "obj-18",
					"maxclass" : "message",
					"numinlets" : 2,
					"numoutlets" : 1,
					"outlettype" : [ "" ],
					"patching_rect" : [ 113.5, 153.0, 29.5, 22.0 ],
					"presentation" : 1,
					"presentation_rect" : [ 107.5, 160.0, 29.5, 22.0 ],
					"text" : "3"
				}

			}
, 			{
				"box" : 				{
					"id" : "obj-17",
					"maxclass" : "message",
					"numinlets" : 2,
					"numoutlets" : 1,
					"outlettype" : [ "" ],
					"patching_rect" : [ 69.75, 153.0, 29.5, 22.0 ],
					"presentation" : 1,
					"presentation_rect" : [ 70.75, 160.0, 29.5, 22.0 ],
					"text" : "2"
				}

			}
, 			{
				"box" : 				{
					"id" : "obj-16",
					"maxclass" : "message",
					"numinlets" : 2,
					"numoutlets" : 1,
					"outlettype" : [ "" ],
					"patching_rect" : [ 24.5, 153.0, 29.5, 22.0 ],
					"presentation" : 1,
					"presentation_rect" : [ 25.5, 160.0, 29.5, 22.0 ],
					"text" : "1"
				}

			}
, 			{
				"box" : 				{
					"id" : "obj-13",
					"maxclass" : "message",
					"numinlets" : 2,
					"numoutlets" : 1,
					"outlettype" : [ "" ],
					"patching_rect" : [ 24.5, 205.0, 110.0, 22.0 ],
					"text" : "push all Section $1"
				}

			}
, 			{
				"box" : 				{
					"id" : "obj-9",
					"maxclass" : "newobj",
					"numinlets" : 1,
					"numoutlets" : 0,
					"patching_rect" : [ 24.5, 266.0, 85.0, 22.0 ],
					"text" : "s toCH-Server"
				}

			}
, 			{
				"box" : 				{
					"fontname" : "Lato",
					"fontsize" : 48.0,
					"id" : "obj-8",
					"maxclass" : "comment",
					"numinlets" : 1,
					"numoutlets" : 0,
					"patching_rect" : [ 15.5, 14.0, 382.0, 64.0 ],
					"presentation" : 1,
					"presentation_rect" : [ 15.5, 14.0, 382.0, 64.0 ],
					"text" : "Simple Routing"
				}

			}
, 			{
				"box" : 				{
					"angle" : 270.0,
					"background" : 1,
					"bgcolor" : [ 0.6, 0.8, 0.6, 1.0 ],
					"id" : "obj-52",
					"maxclass" : "panel",
					"mode" : 0,
					"numinlets" : 1,
					"numoutlets" : 0,
					"patching_rect" : [ 15.5, 329.0, 368.0, 205.0 ],
					"presentation" : 1,
					"presentation_rect" : [ 10.5, 102.0, 341.0, 102.0 ],
					"proportion" : 0.5,
					"rounded" : 5
				}

			}
, 			{
				"box" : 				{
					"angle" : 270.0,
					"background" : 1,
					"bgcolor" : [ 0.6, 0.8, 0.6, 1.0 ],
					"id" : "obj-49",
					"maxclass" : "panel",
					"mode" : 0,
					"numinlets" : 1,
					"numoutlets" : 0,
					"patching_rect" : [ 15.5, 102.0, 368.0, 208.0 ],
					"presentation" : 1,
					"presentation_rect" : [ 10.5, 211.833331882953644, 341.0, 169.0 ],
					"proportion" : 0.5,
					"rounded" : 5
				}

			}
 ],
		"lines" : [ 			{
				"patchline" : 				{
					"destination" : [ "obj-9", 0 ],
					"source" : [ "obj-13", 0 ]
				}

			}
, 			{
				"patchline" : 				{
					"destination" : [ "obj-13", 0 ],
					"source" : [ "obj-16", 0 ]
				}

			}
, 			{
				"patchline" : 				{
					"destination" : [ "obj-13", 0 ],
					"source" : [ "obj-17", 0 ]
				}

			}
, 			{
				"patchline" : 				{
					"destination" : [ "obj-13", 0 ],
					"source" : [ "obj-18", 0 ]
				}

			}
, 			{
				"patchline" : 				{
					"destination" : [ "obj-20", 0 ],
					"order" : 1,
					"source" : [ "obj-19", 0 ]
				}

			}
, 			{
				"patchline" : 				{
					"destination" : [ "obj-42", 0 ],
					"order" : 0,
					"source" : [ "obj-19", 0 ]
				}

			}
, 			{
				"patchline" : 				{
					"destination" : [ "obj-21", 0 ],
					"order" : 0,
					"source" : [ "obj-20", 0 ]
				}

			}
, 			{
				"patchline" : 				{
					"destination" : [ "obj-28", 0 ],
					"midpoints" : [ 61.0, 414.0, 43.0, 414.0 ],
					"order" : 1,
					"source" : [ "obj-20", 0 ]
				}

			}
, 			{
				"patchline" : 				{
					"destination" : [ "obj-23", 0 ],
					"source" : [ "obj-21", 0 ]
				}

			}
, 			{
				"patchline" : 				{
					"destination" : [ "obj-25", 0 ],
					"source" : [ "obj-21", 1 ]
				}

			}
, 			{
				"patchline" : 				{
					"destination" : [ "obj-27", 0 ],
					"source" : [ "obj-21", 2 ]
				}

			}
, 			{
				"patchline" : 				{
					"destination" : [ "obj-37", 0 ],
					"source" : [ "obj-36", 0 ]
				}

			}
, 			{
				"patchline" : 				{
					"destination" : [ "obj-36", 0 ],
					"source" : [ "obj-38", 0 ]
				}

			}
, 			{
				"patchline" : 				{
					"destination" : [ "obj-36", 0 ],
					"source" : [ "obj-39", 0 ]
				}

			}
, 			{
				"patchline" : 				{
					"destination" : [ "obj-36", 0 ],
					"source" : [ "obj-40", 0 ]
				}

			}
, 			{
				"patchline" : 				{
					"destination" : [ "obj-43", 0 ],
					"source" : [ "obj-42", 2 ]
				}

			}
, 			{
				"patchline" : 				{
					"destination" : [ "obj-44", 0 ],
					"source" : [ "obj-42", 1 ]
				}

			}
, 			{
				"patchline" : 				{
					"destination" : [ "obj-45", 0 ],
					"source" : [ "obj-42", 0 ]
				}

			}
 ],
		"dependency_cache" : [ 			{
				"name" : "CH-Client.maxpat",
				"bootpath" : "~/GitHub/Collab-Hub-Client-SH/patchers",
				"patcherrelativepath" : "../patchers",
				"type" : "JSON",
				"implicit" : 1
			}
, 			{
				"name" : "CH-ClientScript.js",
				"bootpath" : "~/GitHub/Collab-Hub-Client-SH/javascript",
				"patcherrelativepath" : "../javascript",
				"type" : "TEXT",
				"implicit" : 1
			}
, 			{
				"name" : "CH-Client-Title.png",
				"bootpath" : "~/GitHub/Collab-Hub-Client-SH/media/img/for-bpatchers",
				"patcherrelativepath" : "../media/img/for-bpatchers",
				"type" : "PNG",
				"implicit" : 1
			}
 ],
		"autosave" : 0,
		"styles" : [ 			{
				"name" : "AudioStatus_Menu",
				"default" : 				{
					"bgfillcolor" : 					{
						"type" : "color",
						"color" : [ 0.294118, 0.313726, 0.337255, 1 ],
						"color1" : [ 0.454902, 0.462745, 0.482353, 0 ],
						"color2" : [ 0.290196, 0.309804, 0.301961, 1 ],
						"angle" : 270,
						"proportion" : 0.39,
						"autogradient" : 0
					}

				}
,
				"parentstyle" : "",
				"multi" : 0
			}
, 			{
				"name" : "blues",
				"default" : 				{
					"textcolor_inverse" : [ 1.0, 1.0, 1.0, 1.0 ],
					"bgfillcolor" : 					{
						"type" : "gradient",
						"color" : [ 0.290196, 0.309804, 0.301961, 1.0 ],
						"color1" : [ 0.0, 0.078431, 0.321569, 1.0 ],
						"color2" : [ 0.240323, 0.247547, 0.573641, 1.0 ],
						"angle" : 270.0,
						"proportion" : 0.39,
						"autogradient" : 0
					}
,
					"bgcolor" : [ 0.240323, 0.247547, 0.573641, 1.0 ],
					"color" : [ 0.897845, 0.934085, 0.993504, 1.0 ],
					"accentcolor" : [ 0.691232, 0.993878, 0.999509, 1.0 ],
					"elementcolor" : [ 0.0, 0.078431, 0.321569, 1.0 ],
					"patchlinecolor" : [ 0.495624, 0.529709, 0.636972, 0.9 ],
					"textcolor" : [ 0.0, 0.078431, 0.321569, 1.0 ]
				}
,
				"parentstyle" : "",
				"multi" : 0
			}
 ]
	}

}
