{
	"patcher" : 	{
		"fileversion" : 1,
		"appversion" : 		{
			"major" : 8,
			"minor" : 1,
			"revision" : 10,
			"architecture" : "x64",
			"modernui" : 1
		}
,
		"classnamespace" : "box",
		"rect" : [ 34.0, 62.0, 1004.0, 804.0 ],
		"bglocked" : 1,
		"openinpresentation" : 1,
		"default_fontsize" : 12.0,
		"default_fontface" : 0,
		"default_fontname" : "Arial",
		"gridonopen" : 1,
		"gridsize" : [ 15.0, 15.0 ],
		"gridsnaponopen" : 1,
		"objectsnaponopen" : 1,
		"statusbarvisible" : 2,
		"toolbarvisible" : 1,
		"lefttoolbarpinned" : 0,
		"toptoolbarpinned" : 0,
		"righttoolbarpinned" : 0,
		"bottomtoolbarpinned" : 0,
		"toolbars_unpinned_last_save" : 0,
		"tallnewobj" : 0,
		"boxanimatetime" : 200,
		"enablehscroll" : 1,
		"enablevscroll" : 1,
		"devicewidth" : 0.0,
		"description" : "",
		"digest" : "",
		"tags" : "",
		"style" : "",
		"subpatcher_template" : "",
		"assistshowspatchername" : 0,
		"boxes" : [ 			{
				"box" : 				{
					"comment" : "from server",
					"id" : "obj-10",
					"index" : 0,
					"maxclass" : "outlet",
					"numinlets" : 1,
					"numoutlets" : 0,
					"patching_rect" : [ 46.0, 304.0, 30.0, 30.0 ]
				}

			}
, 			{
				"box" : 				{
					"comment" : "to server",
					"id" : "obj-6",
					"index" : 0,
					"maxclass" : "inlet",
					"numinlets" : 0,
					"numoutlets" : 1,
					"outlettype" : [ "" ],
					"patching_rect" : [ 240.5, 494.5, 30.0, 30.0 ]
				}

			}
, 			{
				"box" : 				{
					"id" : "obj-16",
					"maxclass" : "newobj",
					"numinlets" : 1,
					"numoutlets" : 0,
					"patching_rect" : [ 272.5, 541.0, 84.0, 22.0 ],
					"text" : "s toCH.Server"
				}

			}
, 			{
				"box" : 				{
					"id" : "obj-15",
					"maxclass" : "message",
					"numinlets" : 2,
					"numoutlets" : 1,
					"outlettype" : [ "" ],
					"patching_rect" : [ 272.5, 494.5, 113.0, 22.0 ],
					"text" : "observeAllControl 1"
				}

			}
, 			{
				"box" : 				{
					"id" : "obj-9",
					"maxclass" : "newobj",
					"numinlets" : 2,
					"numoutlets" : 2,
					"outlettype" : [ "bang", "" ],
					"patching_rect" : [ 272.5, 456.5, 39.0, 22.0 ],
					"text" : "sel all"
				}

			}
, 			{
				"box" : 				{
					"id" : "obj-8",
					"maxclass" : "newobj",
					"numinlets" : 1,
					"numoutlets" : 1,
					"outlettype" : [ "bang" ],
					"patching_rect" : [ 154.5, 405.0, 22.0, 22.0 ],
					"text" : "t b"
				}

			}
, 			{
				"box" : 				{
					"id" : "obj-7",
					"maxclass" : "message",
					"numinlets" : 2,
					"numoutlets" : 1,
					"outlettype" : [ "" ],
					"patching_rect" : [ 154.5, 429.0, 64.0, 22.0 ],
					"text" : "append all"
				}

			}
, 			{
				"box" : 				{
					"id" : "obj-4",
					"maxclass" : "newobj",
					"numinlets" : 1,
					"numoutlets" : 1,
					"outlettype" : [ "" ],
					"patching_rect" : [ 387.5, 494.5, 137.0, 22.0 ],
					"text" : "prepend observeControl"
				}

			}
, 			{
				"box" : 				{
					"id" : "obj-3",
					"maxclass" : "newobj",
					"numinlets" : 3,
					"numoutlets" : 3,
					"outlettype" : [ "", "", "" ],
					"patching_rect" : [ 27.5, 343.0, 255.0, 22.0 ],
					"text" : "route controlsDumpView controlsDumpUmenu"
				}

			}
, 			{
				"box" : 				{
					"id" : "obj-2",
					"maxclass" : "newobj",
					"numinlets" : 0,
					"numoutlets" : 1,
					"outlettype" : [ "" ],
					"patching_rect" : [ 27.5, 272.0, 100.0, 22.0 ],
					"text" : "r fromCH.Server"
				}

			}
, 			{
				"box" : 				{
					"fontname" : "Arial",
					"id" : "obj-105",
					"linecount" : 2,
					"maxclass" : "comment",
					"numinlets" : 1,
					"numoutlets" : 0,
					"patching_rect" : [ 666.0, 518.5, 102.0, 33.0 ],
					"presentation" : 1,
					"presentation_linecount" : 2,
					"presentation_rect" : [ 256.0, 176.968992367271312, 123.0, 33.0 ],
					"style" : "velvet",
					"text" : "Select control to clear from server:",
					"textcolor" : [ 0.2, 0.2, 0.2, 1.0 ]
				}

			}
, 			{
				"box" : 				{
					"bgfillcolor_angle" : 269.577713564497685,
					"bgfillcolor_autogradient" : 0.0,
					"bgfillcolor_color" : [ 0.290196, 0.309804, 0.301961, 1.0 ],
					"bgfillcolor_color1" : [ 0.2, 0.2, 0.2, 1.0 ],
					"bgfillcolor_color2" : [ 0.117536, 0.116592, 0.144338, 1.0 ],
					"bgfillcolor_proportion" : 0.39,
					"bgfillcolor_pt1" : [ 0.504951, 0.278261 ],
					"bgfillcolor_pt2" : [ 0.5, 0.95 ],
					"bgfillcolor_type" : "gradient",
					"color" : [ 0.6, 0.8, 0.6, 1.0 ],
					"elementcolor" : [ 0.6, 0.8, 0.6, 1.0 ],
					"fontname" : "Arial",
					"id" : "obj-106",
					"items" : "<empty>",
					"maxclass" : "umenu",
					"numinlets" : 1,
					"numoutlets" : 3,
					"outlettype" : [ "int", "", "" ],
					"parameter_enable" : 0,
					"patching_rect" : [ 666.0, 555.5, 125.0, 22.0 ],
					"presentation" : 1,
					"presentation_rect" : [ 256.0, 209.968992248062023, 125.0, 22.0 ],
					"style" : "velvet",
					"textcolor" : [ 1.0, 1.0, 1.0, 1.0 ]
				}

			}
, 			{
				"box" : 				{
					"fontname" : "Arial",
					"id" : "obj-103",
					"maxclass" : "comment",
					"numinlets" : 1,
					"numoutlets" : 0,
					"patching_rect" : [ 666.0, 369.5, 125.0, 20.0 ],
					"presentation" : 1,
					"presentation_rect" : [ 256.0, 29.968992248062015, 125.0, 20.0 ],
					"style" : "velvet",
					"text" : "My controls",
					"textcolor" : [ 0.2, 0.2, 0.2, 1.0 ]
				}

			}
, 			{
				"box" : 				{
					"bgcolor" : [ 0.2, 0.2, 0.2, 1.0 ],
					"id" : "obj-104",
					"maxclass" : "dict.view",
					"numinlets" : 1,
					"numoutlets" : 0,
					"patching_rect" : [ 666.0, 391.5, 125.0, 125.0 ],
					"presentation" : 1,
					"presentation_rect" : [ 256.0, 49.968992248062015, 125.0, 125.0 ],
					"stripecolor" : [ 0.4, 0.403921568627451, 0.4, 1.0 ],
					"style" : "velvet",
					"textcolor" : [ 1.0, 1.0, 1.0, 1.0 ]
				}

			}
, 			{
				"box" : 				{
					"fontname" : "Arial",
					"id" : "obj-34",
					"linecount" : 2,
					"maxclass" : "comment",
					"numinlets" : 1,
					"numoutlets" : 0,
					"patching_rect" : [ 539.0, 518.5, 99.0, 33.0 ],
					"presentation" : 1,
					"presentation_linecount" : 2,
					"presentation_rect" : [ 129.0, 176.968992367271312, 125.0, 33.0 ],
					"style" : "velvet",
					"text" : "Select control to stop observing:",
					"textcolor" : [ 0.2, 0.2, 0.2, 1.0 ]
				}

			}
, 			{
				"box" : 				{
					"fontname" : "Arial",
					"id" : "obj-33",
					"linecount" : 2,
					"maxclass" : "comment",
					"numinlets" : 1,
					"numoutlets" : 0,
					"patching_rect" : [ 219.5, 389.5, 126.0, 33.0 ],
					"presentation" : 1,
					"presentation_linecount" : 2,
					"presentation_rect" : [ 2.0, 176.968992248062023, 125.0, 33.0 ],
					"style" : "velvet",
					"text" : "Select control to observe:",
					"textcolor" : [ 0.2, 0.2, 0.2, 1.0 ]
				}

			}
, 			{
				"box" : 				{
					"bgfillcolor_angle" : 269.577713564497685,
					"bgfillcolor_autogradient" : 0.0,
					"bgfillcolor_color" : [ 0.290196, 0.309804, 0.301961, 1.0 ],
					"bgfillcolor_color1" : [ 0.2, 0.2, 0.2, 1.0 ],
					"bgfillcolor_color2" : [ 0.117536, 0.116592, 0.144338, 1.0 ],
					"bgfillcolor_proportion" : 0.39,
					"bgfillcolor_pt1" : [ 0.504951, 0.278261 ],
					"bgfillcolor_pt2" : [ 0.5, 0.95 ],
					"bgfillcolor_type" : "gradient",
					"color" : [ 0.6, 0.8, 0.6, 1.0 ],
					"elementcolor" : [ 0.6, 0.8, 0.6, 1.0 ],
					"fontname" : "Arial",
					"id" : "obj-30",
					"items" : "<empty>",
					"maxclass" : "umenu",
					"numinlets" : 1,
					"numoutlets" : 3,
					"outlettype" : [ "int", "", "" ],
					"parameter_enable" : 0,
					"patching_rect" : [ 539.0, 555.5, 125.0, 22.0 ],
					"presentation" : 1,
					"presentation_rect" : [ 129.0, 209.968992248062023, 125.0, 22.0 ],
					"style" : "velvet",
					"textcolor" : [ 1.0, 1.0, 1.0, 1.0 ]
				}

			}
, 			{
				"box" : 				{
					"bgfillcolor_angle" : 269.577713564497685,
					"bgfillcolor_autogradient" : 0.0,
					"bgfillcolor_color" : [ 0.290196, 0.309804, 0.301961, 1.0 ],
					"bgfillcolor_color1" : [ 0.2, 0.2, 0.2, 1.0 ],
					"bgfillcolor_color2" : [ 0.117536, 0.116592, 0.144338, 1.0 ],
					"bgfillcolor_proportion" : 0.39,
					"bgfillcolor_pt1" : [ 0.504951, 0.278261 ],
					"bgfillcolor_pt2" : [ 0.5, 0.95 ],
					"bgfillcolor_type" : "gradient",
					"color" : [ 0.6, 0.8, 0.6, 1.0 ],
					"elementcolor" : [ 0.6, 0.8, 0.6, 1.0 ],
					"fontname" : "Arial",
					"id" : "obj-29",
					"items" : "<empty>",
					"maxclass" : "umenu",
					"numinlets" : 1,
					"numoutlets" : 3,
					"outlettype" : [ "int", "", "" ],
					"parameter_enable" : 0,
					"patching_rect" : [ 219.5, 429.0, 125.0, 22.0 ],
					"presentation" : 1,
					"presentation_rect" : [ 2.0, 209.968992248062023, 125.0, 22.0 ],
					"style" : "velvet",
					"textcolor" : [ 1.0, 1.0, 1.0, 1.0 ]
				}

			}
, 			{
				"box" : 				{
					"fontname" : "Arial",
					"id" : "obj-23",
					"maxclass" : "comment",
					"numinlets" : 1,
					"numoutlets" : 0,
					"patching_rect" : [ 539.0, 369.5, 126.0, 20.0 ],
					"presentation" : 1,
					"presentation_rect" : [ 129.0, 29.968992248062015, 126.0, 20.0 ],
					"style" : "velvet",
					"text" : "Observing controls",
					"textcolor" : [ 0.2, 0.2, 0.2, 1.0 ]
				}

			}
, 			{
				"box" : 				{
					"bgcolor" : [ 0.2, 0.2, 0.2, 1.0 ],
					"id" : "obj-24",
					"maxclass" : "dict.view",
					"numinlets" : 1,
					"numoutlets" : 0,
					"patching_rect" : [ 539.0, 391.5, 125.0, 125.0 ],
					"presentation" : 1,
					"presentation_rect" : [ 129.0, 49.968992248062015, 125.0, 125.0 ],
					"stripecolor" : [ 0.4, 0.403921568627451, 0.4, 1.0 ],
					"style" : "velvet",
					"textcolor" : [ 1.0, 1.0, 1.0, 1.0 ]
				}

			}
, 			{
				"box" : 				{
					"fontname" : "Arial",
					"id" : "obj-22",
					"maxclass" : "comment",
					"numinlets" : 1,
					"numoutlets" : 0,
					"patching_rect" : [ 27.5, 383.0, 122.0, 20.0 ],
					"presentation" : 1,
					"presentation_rect" : [ 2.0, 29.968992248062015, 122.0, 20.0 ],
					"style" : "velvet",
					"text" : "Available controls",
					"textcolor" : [ 0.2, 0.2, 0.2, 1.0 ]
				}

			}
, 			{
				"box" : 				{
					"bgcolor" : [ 0.2, 0.2, 0.2, 1.0 ],
					"id" : "obj-21",
					"maxclass" : "dict.view",
					"numinlets" : 1,
					"numoutlets" : 0,
					"patching_rect" : [ 27.5, 405.0, 125.0, 125.0 ],
					"presentation" : 1,
					"presentation_rect" : [ 2.0, 49.968992248062015, 125.0, 125.0 ],
					"stripecolor" : [ 0.4, 0.403921568627451, 0.4, 1.0 ],
					"style" : "velvet",
					"textcolor" : [ 1.0, 1.0, 1.0, 1.0 ]
				}

			}
, 			{
				"box" : 				{
					"autofit" : 1,
					"background" : 1,
					"forceaspect" : 1,
					"id" : "obj-1",
					"maxclass" : "fpic",
					"numinlets" : 1,
					"numoutlets" : 1,
					"outlettype" : [ "jit_matrix" ],
					"patching_rect" : [ 339.0, 4.0, 40.0, 35.084745762711862 ],
					"pic" : "Macintosh HD:/Users/ersheff/Documents/GitStuff/Collab-Hub-Client/bpatchers-beta/img/CH-Logo.png",
					"presentation" : 1,
					"presentation_rect" : [ 339.0, 4.0, 40.0, 35.084745762711862 ]
				}

			}
, 			{
				"box" : 				{
					"autofit" : 1,
					"background" : 1,
					"forceaspect" : 1,
					"id" : "obj-5",
					"maxclass" : "fpic",
					"numinlets" : 1,
					"numoutlets" : 1,
					"outlettype" : [ "jit_matrix" ],
					"patching_rect" : [ 4.0, 4.0, 138.0, 19.968992248062015 ],
					"pic" : "/Users/ersheff/Documents/GitStuff/Collab-Hub-Client/bpatchers-beta/img/CH-Controls-Title.png",
					"presentation" : 1,
					"presentation_rect" : [ 4.0, 4.0, 138.0, 19.968992248062015 ]
				}

			}
, 			{
				"box" : 				{
					"angle" : 270.0,
					"background" : 1,
					"bgcolor" : [ 0.6, 0.8, 0.6, 1.0 ],
					"id" : "obj-47",
					"maxclass" : "panel",
					"mode" : 0,
					"numinlets" : 1,
					"numoutlets" : 0,
					"patching_rect" : [ 0.0, 0.0, 383.0, 241.0 ],
					"presentation" : 1,
					"presentation_rect" : [ 0.0, 0.0, 383.0, 234.0 ],
					"proportion" : 0.5,
					"rounded" : 0
				}

			}
 ],
		"lines" : [ 			{
				"patchline" : 				{
					"destination" : [ "obj-16", 0 ],
					"source" : [ "obj-15", 0 ]
				}

			}
, 			{
				"patchline" : 				{
					"destination" : [ "obj-10", 0 ],
					"order" : 0,
					"source" : [ "obj-2", 0 ]
				}

			}
, 			{
				"patchline" : 				{
					"destination" : [ "obj-3", 0 ],
					"order" : 1,
					"source" : [ "obj-2", 0 ]
				}

			}
, 			{
				"patchline" : 				{
					"destination" : [ "obj-9", 0 ],
					"source" : [ "obj-29", 1 ]
				}

			}
, 			{
				"patchline" : 				{
					"destination" : [ "obj-21", 0 ],
					"source" : [ "obj-3", 0 ]
				}

			}
, 			{
				"patchline" : 				{
					"destination" : [ "obj-29", 0 ],
					"order" : 0,
					"source" : [ "obj-3", 1 ]
				}

			}
, 			{
				"patchline" : 				{
					"destination" : [ "obj-8", 0 ],
					"order" : 1,
					"source" : [ "obj-3", 1 ]
				}

			}
, 			{
				"patchline" : 				{
					"destination" : [ "obj-16", 0 ],
					"source" : [ "obj-4", 0 ]
				}

			}
, 			{
				"patchline" : 				{
					"destination" : [ "obj-16", 0 ],
					"source" : [ "obj-6", 0 ]
				}

			}
, 			{
				"patchline" : 				{
					"destination" : [ "obj-29", 0 ],
					"source" : [ "obj-7", 0 ]
				}

			}
, 			{
				"patchline" : 				{
					"destination" : [ "obj-7", 0 ],
					"source" : [ "obj-8", 0 ]
				}

			}
, 			{
				"patchline" : 				{
					"destination" : [ "obj-15", 0 ],
					"source" : [ "obj-9", 0 ]
				}

			}
, 			{
				"patchline" : 				{
					"destination" : [ "obj-4", 0 ],
					"source" : [ "obj-9", 1 ]
				}

			}
 ],
		"dependency_cache" : [ 			{
				"name" : "CH-Controls-Title.png",
				"bootpath" : "~/Documents/GitStuff/Collab-Hub-Client/bpatchers-beta/img",
				"patcherrelativepath" : "./img",
				"type" : "PNG",
				"implicit" : 1
			}
, 			{
				"name" : "CH-Logo.png",
				"bootpath" : "~/Documents/GitStuff/Collab-Hub-Client/bpatchers-beta/img",
				"patcherrelativepath" : "./img",
				"type" : "PNG",
				"implicit" : 1
			}
 ],
		"autosave" : 0
	}

}
